<?xml version="1.0" encoding="UTF-8" standalone="no"?>
<!-- Created with Inkscape (http://www.inkscape.org/) -->

<svg
   xmlns:dc="http://purl.org/dc/elements/1.1/"
   xmlns:cc="http://creativecommons.org/ns#"
   xmlns:rdf="http://www.w3.org/1999/02/22-rdf-syntax-ns#"
   xmlns:svg="http://www.w3.org/2000/svg"
   xmlns="http://www.w3.org/2000/svg"
   xmlns:xlink="http://www.w3.org/1999/xlink"
   xmlns:sodipodi="http://sodipodi.sourceforge.net/DTD/sodipodi-0.dtd"
   xmlns:inkscape="http://www.inkscape.org/namespaces/inkscape"
   width="800"
   height="600"
   id="svg2"
   version="1.1"
   inkscape:version="0.48+devel r11526"
   sodipodi:docname="pyohio.svg">
  <defs
     id="defs4">
    <linearGradient
       inkscape:collect="always"
       id="linearGradient3995">
      <stop
         style="stop-color:#000000;stop-opacity:1;"
         offset="0"
         id="stop3997" />
      <stop
         style="stop-color:#000000;stop-opacity:0;"
         offset="1"
         id="stop3999" />
    </linearGradient>
    <linearGradient
       y2="-177.24957"
       x2="-702.27167"
       y1="-287.68533"
       x1="-702.27167"
       gradientTransform="matrix(1.0390466,0,0,1.0390466,-186.33078,1310.5916)"
       gradientUnits="userSpaceOnUse"
       id="linearGradient7027"
       xlink:href="#linearGradient4805"
       inkscape:collect="always" />
    <linearGradient
       id="linearGradient4805"
       inkscape:collect="always">
      <stop
         id="stop4807"
         offset="0"
         style="stop-color:#ffffff;stop-opacity:1;" />
      <stop
         id="stop4809"
         offset="1"
         style="stop-color:#ffffff;stop-opacity:0;" />
    </linearGradient>
    <linearGradient
       y2="-77.832855"
       x2="-745.33875"
       y1="-189.86911"
       x1="-745.33875"
       gradientTransform="matrix(0.98178945,0,0,0.98178945,-182.75867,1346.4001)"
       gradientUnits="userSpaceOnUse"
       id="linearGradient7037"
       xlink:href="#linearGradient4766"
       inkscape:collect="always" />
    <linearGradient
       id="linearGradient4766"
       inkscape:collect="always">
      <stop
         id="stop4768"
         offset="0"
         style="stop-color:#ff9955;stop-opacity:1" />
      <stop
         id="stop4770"
         offset="1"
         style="stop-color:#ff6600;stop-opacity:1" />
    </linearGradient>
    <linearGradient
       inkscape:collect="always"
       xlink:href="#linearGradient3995"
       id="linearGradient4072"
       gradientUnits="userSpaceOnUse"
       gradientTransform="matrix(0.43712436,0,0,0.56187799,981.431,250.62794)"
       x1="-1278.4458"
       y1="1277.2576"
       x2="-1278.4458"
       y2="963.19293" />
    <linearGradient
       inkscape:collect="always"
       xlink:href="#linearGradient6006-6"
       id="linearGradient3728"
       gradientUnits="userSpaceOnUse"
       gradientTransform="matrix(0.34862287,0,0,0.38023384,134.16787,927.89822)"
       x1="802.33051"
       y1="228.33238"
       x2="802.33051"
       y2="421.63248" />
    <linearGradient
       inkscape:collect="always"
       id="linearGradient6006-6">
      <stop
         style="stop-color:#ffffff;stop-opacity:1;"
         offset="0"
         id="stop6008-7" />
      <stop
         style="stop-color:#ffffff;stop-opacity:0;"
         offset="1"
         id="stop6010-5" />
    </linearGradient>
    <radialGradient
       inkscape:collect="always"
       xlink:href="#linearGradient4784-2-4"
       id="radialGradient3730"
       gradientUnits="userSpaceOnUse"
       gradientTransform="matrix(-0.0058604,0.39264748,-0.24590424,-0.00367021,645.99529,1169.5741)"
       cx="-411.323"
       cy="-208.61775"
       fx="-411.323"
       fy="-208.61775"
       r="90.157059" />
    <linearGradient
       inkscape:collect="always"
       id="linearGradient4784-2-4">
      <stop
         style="stop-color:#ffccaa;stop-opacity:1"
         offset="0"
         id="stop4786-6-6" />
      <stop
         style="stop-color:#ff6600;stop-opacity:1"
         offset="1"
         id="stop4788-4-6" />
    </linearGradient>
    <linearGradient
       inkscape:collect="always"
       xlink:href="#linearGradient4853-4"
       id="linearGradient3732"
       gradientUnits="userSpaceOnUse"
       gradientTransform="matrix(0.23200958,0,0,0.23200958,523.07239,1222.2011)"
       x1="415.5759"
       y1="-915.36462"
       x2="415.5759"
       y2="-752.6391" />
    <linearGradient
       inkscape:collect="always"
       id="linearGradient4853-4">
      <stop
         style="stop-color:#ff9955;stop-opacity:1"
         offset="0"
         id="stop4855-3" />
      <stop
         style="stop-color:#ff6600;stop-opacity:1"
         offset="1"
         id="stop4857-0" />
    </linearGradient>
  </defs>
  <sodipodi:namedview
     id="base"
     pagecolor="#ffffff"
     bordercolor="#666666"
     borderopacity="1.0"
     inkscape:pageopacity="0.0"
     inkscape:pageshadow="2"
     inkscape:zoom="1"
     inkscape:cx="302.95041"
     inkscape:cy="303.82561"
     inkscape:document-units="px"
     inkscape:current-layer="layer1"
     showgrid="false"
     inkscape:window-width="1920"
     inkscape:window-height="1128"
     inkscape:window-x="0"
     inkscape:window-y="24"
     inkscape:window-maximized="1"
     showguides="true"
     inkscape:guide-bbox="true" />
  <metadata
     id="metadata7">
    <rdf:RDF>
      <cc:Work
         rdf:about="">
        <dc:format>image/svg+xml</dc:format>
        <dc:type
           rdf:resource="http://purl.org/dc/dcmitype/StillImage" />
        <dc:title></dc:title>
      </cc:Work>
    </rdf:RDF>
  </metadata>
  <g
     inkscape:label="Layer 1"
     inkscape:groupmode="layer"
     id="layer1"
     transform="translate(0,-452.36218)">
    <path
       inkscape:connector-curvature="0"
       id="path3573"
       d="m 0,752.3622 0,-300.00002 400.00001,0 399.99999,0 0,300.00002 0,300 -399.99999,0 -400.00001,0 0,-300 z"
       style="fill:#4d4d4d"
       inkscape:export-filename="pyohio.png"
       inkscape:export-xdpi="90"
       inkscape:export-ydpi="90" />
    <path
       style="opacity:0.75;fill:#666666"
       d="m 25.437331,1043.8252 c -11.741864,-13.3209 1.055019,-34.7699 7.184511,-10.5272 20.104064,-12.7233 -10.257864,-29.5306 -4.893563,-31.039 28.764764,-20.81243 -23.0663654,-38.33067 -9.332794,-67.35177 8.043613,-42.92428 -0.057,-85.88534 0.900829,-129.10869 -0.371254,-39.88732 0.288971,-79.77384 0.358119,-119.66091 13.262801,14.33738 29.681258,-18.96487 7.062855,-12.89813 -18.0300541,-40.65414 -1.614755,-85.69837 -7.428723,-128.26767 0,-27.23063 0,-54.46126 0,-81.69188 160.464915,0.51024 320.943545,-1.17288 481.396485,1.49889 14.94502,31.0437 5.0784,55.74045 1.7677,86.30489 -12.77242,0.85184 2.41181,8.28555 -11.72031,6.59002 -13.80758,14.82594 7.6022,1.25412 -0.30541,21.10883 -7.6543,16.765 8.94778,25.34273 9.3329,5.31223 18.51392,1.93085 2.8149,25.1429 -1.49641,19.05176 -10.32001,23.1287 23.33784,-0.13751 4.83541,23.96862 -12.23888,15.87089 -19.41297,14.83844 -0.53941,5.44455 14.91293,10.65247 -8.11105,18.56974 5.42883,28.57937 -5.2988,26.99344 20.80716,17.39269 30.6038,15.19654 10.33088,18.56239 -41.46715,31.30163 -1.6913,22.67524 7.8164,8.27295 2.55438,58.05106 16.71438,21.73276 16.23276,-30.7811 -16.40393,-96.05184 25.7624,-104.50272 13.27391,4.38464 46.68991,3.14522 14.80952,-2.75349 -19.05379,5.03777 -53.26974,-24.86091 -16.25618,-19.65189 20.97776,3.6367 27.7064,-9.64195 2.70987,-8.32908 -35.70676,-8.63163 -5.35123,-23.72515 13.67302,-22.05183 -10.48095,-4.98914 -49.70187,-13.40042 -21.40017,-23.85516 15.8608,-1.59146 77.42152,5.69586 43.88927,25.4469 -33.51649,-0.52468 32.80851,4.99542 8.87197,25.6714 -4.68843,-1.4649 5.25505,49.92715 8.25181,17.82236 3.93243,-24.75049 -11.15213,-56.84284 6.57014,-76.67661 0.36575,25.95069 11.61295,0.73356 3.28195,-8.9779 5.13331,-28.31483 64.78659,-29.33857 27.52932,0.37272 -15.13108,12.39719 30.00766,-10.15095 10.49667,15.98925 -12.31805,15.97115 20.15383,21.13867 -3.67618,36.3709 -31.11816,15.9972 12.25856,-6.06131 9.46322,21.2038 0.77709,37.4461 -0.80867,75.25066 6.8144,112.21 17.40487,3.00389 20.38901,-50.47831 14.65699,-66.83715 17.78892,-32.8515 74.5667,30.73877 69.88881,-20.19128 -13.85203,-37.34426 18.12332,-98.82801 -17.79424,-121.00926 -34.42139,-19.67706 -76.57372,-22.61868 -106.76274,3.95949 7.12216,-16.11399 44.78397,-26.72487 10.51313,-32.88029 -22.83522,-19.34455 35.53041,-5.62142 46.29825,-1.56407 17.57024,0.41999 24.30633,-6.45869 18.30055,7.72276 32.26762,4.08822 75.53809,17.35093 59.78206,59.61155 -1.64506,64.51657 0.88609,129.2771 -0.0181,193.93942 0.0353,104.12208 -0.10635,208.24415 -0.0246,312.36623 -143.14695,-0.1554 -286.29555,0.4059 -429.44103,-0.4772 -7.67143,-11.3781 -45.81409,-40.3654 -14.16962,-42.9308 0.13879,38.973 67.39611,21.0319 40.41693,-14.28233 -9.07111,-17.03394 -31.32991,-19.91572 -1.31376,-26.04544 26.28668,-24.2496 -35.3261,-34.11109 -52.83075,-40.89816 -15.39871,-3.54789 -76.50933,-2.12286 -37.476,-22.54884 13.82458,-5.1246 16.17545,-18.95073 13.46932,1.18682 22.73094,23.73181 39.89615,-14.77674 27.25732,-34.56302 -0.95069,-20.54796 10.59684,-69.34477 -24.13719,-51.38182 -34.42332,-5.52372 -67.84556,7.41044 -102.6551,0.79311 -54.75893,-2.83761 -4.50303,70.28049 -47.72257,82.49775 -11.095,-11.17914 -16.58367,-11.36964 -30.06065,-5.04646 21.43641,-23.94725 -18.88982,-55.52606 -23.82553,-18.03334 16.17787,29.70029 10.17328,70.22193 17.32381,101.27744 -20.37165,19.36051 4.69229,67.24269 -24.182543,69.26899 -25.022632,-2.0348 -49.491113,0.028 -74.461706,0.8588 z m 79.679209,-3.4573 c -0.61953,-3.1142 -0.89031,3.4305 0,0 z m -63.093887,-2.2605 c 13.352373,-10.0179 -6.517091,-2.1346 0,0 z m -9.263594,-1.4437 c -0.325762,-4.5574 -3.438823,2.5205 0,0 z m 71.001731,-4.2682 c 2.62105,-7.013 -6.041232,4.4697 0,0 z m 5.01621,-4.6953 c -2.51022,-2.5057 0.91973,6.9604 0,0 z m -54.844132,-2.4 c -0.420082,-2.5227 -1.605259,1.5017 0,0 z m 0.315189,-2.9636 c -0.959027,-6.3864 -3.067329,6.2793 0,0 z m 4.497042,0.3496 c -0.258727,-3.4234 -1.803111,2.3061 0,0 z m 330.118781,-0.9054 c -1.85212,-6.8809 -4.89671,4.1371 0,0 z m -331.562403,-0.8714 c -1.06851,-2.565 -1.068259,2.5651 0,0 z m -1.61213,-2.3234 c 22.823566,-7.6185 62.518793,-47.34619 48.816943,-63.1236 -26.159803,7.24252 -50.146031,43.88513 -48.816943,63.1236 z m 20.379776,-37.75529 c 1.068259,-2.56509 1.068489,2.56505 0,0 z m 7.940195,-8.71282 c 0.871484,-2.53137 0.755632,2.29775 0,0 z m 12.752354,-6.95201 1.427799,0.32364 -1.427799,-0.32364 z m 12.511788,-9.89266 c 1.06849,-2.56505 1.06826,2.56509 0,0 z m 304.98819,64.15118 c 3.86189,-7.6347 -6.89086,3.7041 0,0 z m -309.11873,-2.3736 c 0.3451,-3.8285 -1.89852,4.1023 0,0 z m 291.17999,-0.2073 c -0.0505,-4.7223 -3.6523,4.0555 0,0 z m -288.46089,-4.1038 c 3.513,-7.2065 -6.07776,6.935 0,0 z m -52.966706,0.038 c -1.068269,-2.5653 -1.068583,2.5652 0,0 z m -22.136255,-5.2276 c -1.877111,-8.3037 -1.830145,5.8468 0,0 z m 7.228047,-4.3704 c -0.302253,-4.53522 -3.488236,5.8125 0,0 z m -8.310811,-2.1642 c -1.821893,-3.59168 -1.822165,3.5917 0,0 z m 85.778005,-1.2726 c -0.41988,-2.52259 -1.60529,1.5016 0,0 z m -88.785578,-1.48646 c -1.338866,-2.89401 -1.292726,2.67816 0,0 z m 11.549273,-0.5808 c -1.108501,-3.00247 -1.0251,2.51176 0,0 z m 353.366585,-2.75909 c -1.71713,-3.71981 -1.12712,4.11388 0,0 z m -0.50165,-10.80609 c -2.36865,-16.73432 -13.36016,-3.47544 0,0 z m -5.38218,0.86422 -2.25798,0.24622 2.25798,-0.24622 z m -2.95902,-5.57308 c -5.26967,-1.78307 5.9531,9.34968 0,0 z m -3.22916,-5.55238 c -1.82052,-5.682 -1.13765,4.49296 0,0 z m 2.16883,-1.10452 c -3.56297,-6.0957 1.77712,5.46298 0,0 z m -8.58889,-1.28201 c 10.68031,-11.56441 -8.15446,1.41289 0,0 z m -6.43991,-2.21454 c -0.25833,-3.42334 -1.80338,2.30559 0,0 z m 2.40608,-1.19602 c -1.06859,-2.56523 -1.06826,2.5653 0,0 z m 32.90221,-11.34579 c 18.00037,-10.57183 -8.14919,-2.15231 0,0 z m -3.06639,-4.56545 c -1.69388,-3.61876 -2.1508,1.77172 0,0 z m 1.44362,-0.67726 c -1.80329,-2.30601 -0.25851,3.42365 0,0 z m -297.15498,-3.16087 c -3.17961,-0.99502 1.32131,3.83411 0,0 z m 290.87705,-0.0496 c -2.02037,-4.05001 0.7407,4.06644 0,0 z m 10.85042,-0.53267 c 16.82039,4.15191 -3.87963,-9.5864 0,0 z m -2.64759,-0.9375 c -1.51297,-6.64319 -4.78829,2.88882 0,0 z m 0,-3.12691 c -0.75562,-2.29777 -0.87149,2.53136 0,0 z m 2.88734,-1.41784 c -0.42007,-2.52259 -1.60526,1.50173 0,0 z m 2.96474,-1.34125 c 15.83018,-13.44076 -12.18561,-9.32154 0,0 z m -50.12451,-9.695 c -0.42019,-2.52236 -1.60514,1.50165 0,0 z m -16.84285,-8.74703 c -1.23813,-3.16364 -0.87106,3.59719 0,0 z m 9.14329,-0.29035 c -1.06827,-2.56508 -1.0685,2.56505 0,0 z m 48.40753,-1.02542 c 7.4684,-11.5247 -8.3561,-4.12216 0,0 z m 8.37669,-1.29798 c -0.75561,-2.2978 -0.87151,2.53133 0,0 z M 101.5739,911.38455 c -1.803306,-2.306 -0.25852,3.42366 0,0 z m 5.77467,-6.38931 c -1.23798,-10.65615 -0.9819,12.85163 0,0 z M 21.429778,891.41961 c -0.601807,-3.35641 -1.908861,3.27751 0,0 z m 148.730132,-3.58945 c 1.2039,-11.80152 -3.95793,4.9262 0,0 z M 20.728527,884.99014 c -1.068248,-2.5651 -1.068499,2.56502 0,0 z m 55.541805,-8.48453 c 3.887423,-5.85154 -6.621994,0.98167 0,0 z m -10.314274,-5.60115 c -3.043663,-0.66822 1.709806,4.43375 0,0 z m 280.079012,-6.2442 c 22.42752,-4.47842 -17.65089,-13.47128 0,0 z m 3.21611,-0.10886 -0.0885,1.04936 0.0885,-1.04936 z m 23.05465,-1.44601 c 7.11124,-15.38611 -10.67139,0.28495 0,0 z m -9.17637,-0.41668 c 16.96678,-13.21813 -10.28006,-9.79879 0,0 z m 27.7057,-0.49428 -1.96035,-0.48071 1.96035,0.48071 z m -7.74587,1.04799 c -0.42017,-2.52238 -1.60514,1.50164 0,0 z m 26.46722,-2.23332 c 1.05669,-15.69363 -8.66989,3.71275 0,0 z m -70.36332,0.83674 c -2.45167,-2.95556 -1.18493,4.33608 0,0 z m 43.53515,-0.89835 c 4.38964,-13.27595 -9.35008,-0.65034 0,0 z m 17.68489,-1.16374 c 1.38276,-6.67366 -6.17173,6.12092 0,0 z m -9.62446,-1.73647 c -1.42063,-10.91168 -5.19102,4.98712 0,0 z M 78.681504,853.87304 c 6.188526,-21.08795 -17.112315,3.69085 0,0 z m 28.170786,-10.48791 c -5.72192,-10.64932 -3.91458,9.09773 0,0 z m 375.47594,0.4087 c 16.11647,-13.96399 -12.60485,-82.67955 -15.69565,-38.70721 6.02663,23.57239 -23.26015,28.98554 -28.88061,6.52999 -20.81001,42.09828 27.17435,16.79237 44.57626,32.17722 z m -28.52128,-11.13011 c -0.69243,-5.63873 3.28317,4.64772 0,0 z m 9.64654,-0.78719 c 0.25829,-3.42355 1.80351,2.30562 0,0 z m 10.94777,-32.74578 c -3.00355,-6.25893 15.93437,5.53027 0,0 z M 78.791897,833.79899 c 4.677273,-20.02775 -18.055247,5.0236 0,0 z m 43.233993,-0.16529 c 18.56931,11.4901 46.73547,-38.03625 16.92658,-16.1119 -12.37631,-1.26688 -26.8114,-0.0145 -16.92658,16.1119 z m 8.93984,-8.86076 c -4.42837,-8.31194 7.0302,1.66402 0,0 z m -4.30961,-0.39652 c -20.94208,6.97102 7.5784,-11.54754 0,0 z m 21.11518,-2.1526 c 1.6053,-1.50156 0.41986,2.5226 0,0 z m 0.48127,-5.77422 c 1.06858,-2.56523 1.06825,2.5653 0,0 z m 4.81223,-5.22761 c -0.91226,-2.33299 3.19693,2.25716 0,0 z m 267.07862,20.30917 c -2.29399,-10.34277 -6.60385,4.88668 0,0 z M 105.6189,831.8449 c 12.70367,-25.5462 -15.791127,0.21796 0,0 z m 58.36149,-7.95314 -0.0885,1.0495 0.0885,-1.0495 z m 258.08793,-7.21385 c -2.17917,-3.21934 -0.65017,4.91847 0,0 z m -278.63764,-2.8562 c -2.01679,-3.55886 0.2449,2.84213 0,0 z m -65.145257,-0.14004 c 7.271876,-19.60558 -18.3879,2.10456 0,0 z m 43.442187,-3.76661 c 31.98105,-22.18198 -31.180421,-10.93099 0,0 z m 35.66815,-1.01648 c -1.55281,-2.94227 -1.55294,2.94229 0,0 z m 10.58691,-3.48512 c -1.29273,-2.67816 -1.33887,2.89401 0,0 z m 218.06645,-0.43567 c 4.0875,-14.46573 -13.98945,-1.04855 0,0 z m -153.38181,-3.03265 c -0.6176,-34.31705 -12.14836,16.31571 0,0 z m 69.48669,2.55084 c 11.26171,-19.07756 -16.21213,-8.80714 0,0 z m 106.92125,-3.14858 c -0.87151,-2.53133 -0.7556,2.29781 0,0 z m -94.31962,-1.7425 c -0.87109,-2.53161 -0.75608,2.29772 0,0 z m 40.1442,-0.0378 c 8.04553,-8.89451 -11.97778,-0.81136 0,0 z m 50.32563,-0.47182 c 16.83258,-12.59949 -17.88491,-13.74622 0,0 z m -54.37816,-0.33264 c 0.68945,-8.32532 -6.73409,1.29892 0,0 z m -67.73207,-2.24756 c 39.3491,-39.89783 -61.35438,-60.55774 -43.09512,-8.82262 6.97546,8.88115 30.3492,1.29326 43.09512,8.82262 z m -3.40507,-3.11958 c 5.68693,-6.75381 6.11144,6.53765 0,0 z m -27.29183,-7.18707 c 1.57582,-6.55272 5.07542,4.77107 0,0 z m -10.8086,-24.97388 c 1.60516,-1.50164 0.42019,2.52238 0,0 z m 95.28216,37.21584 c 6.89215,-23.24128 -26.94648,-6.59527 0,0 z m 42.8422,-1.19892 c 5.77314,-11.50896 -8.30502,-2.57335 0,0 z m -120.80033,0.93566 c -0.42007,-2.52259 -1.60526,1.50174 0,0 z m 7.21839,-2.23407 c -2.85371,-4.78845 -3.1863,4.44063 0,0 z m 119.2229,-1.05238 c 6.77533,-13.15797 -10.18855,2.41781 0,0 z M 585.9926,792.4896 c -7.26668,-15.05756 -6.39784,14.12495 0,0 z m -212.52777,0.26142 c 5.78884,-8.87974 -5.97246,2.07955 0,0 z m -62.07781,-4.18211 c -0.87109,-2.5316 -0.75608,2.29772 0,0 z m 34.16689,-2.03295 c -0.89873,-5.24899 -1.21254,5.2357 0,0 z m 22.13625,0.87125 -1.75487,0.42687 1.75487,-0.42687 z m 15.7213,-0.29045 c -2.48512,-3.88531 -3.0058,4.1807 0,0 z m -26.78947,-1.45216 c -0.75608,-2.29772 -0.8711,2.53161 0,0 z m 17.32403,0.32477 c -0.42007,-2.5226 -1.60527,1.50172 0,0 z m 33.07401,-0.095 -0.88307,0.0327 0.88307,-0.0327 z M 143.26631,782.4698 c 16.80292,-26.79049 -6.17077,-61.07478 4.01816,-89.95977 -0.0272,-17.59556 -13.96247,-29.57827 -12.45877,-4.14818 -4.05176,31.3452 -4.47763,64.6199 8.44061,94.10795 z m 4.02381,-27.04395 c 1.60527,-1.50172 0.42007,2.52261 0,0 z m -1.44371,-4.0316 c 0.87109,-2.53162 0.75607,2.29771 0,0 z m -5.53404,-20.32987 c 1.02518,-2.51163 1.10832,3.00272 0,0 z m -4.83199,-57.54278 1.13488,-0.67695 -1.13488,0.67695 z m 3.14772,-3.15603 c 2.0906,-4.23822 2.09073,4.23821 0,0 z m 14.34043,111.11688 c -0.74131,-14.6711 -11.94235,7.89071 0,0 z m 192.45934,-2.02744 c -3.22572,-3.78867 0.70133,3.6829 0,0 z m 161.09505,-0.083 c -1.73928,-2.90117 -0.72175,3.75194 0,0 z m -138.66471,-2.14839 c -1.88159,-2.72465 0.62296,4.30902 0,0 z m 144.03267,0.0432 c -2.1518,-3.78278 0.31695,4.2052 0,0 z m -183.17983,0.3621 c 0.21114,-4.5246 -2.32876,1.48102 0,0 z m 11.31838,-2.38372 c 15.06292,3.60838 56.76591,-9.69438 19.60042,-8.7757 -3.12922,2.4701 -26.18205,1.56794 -19.60042,8.7757 z m 33.24734,-4.43696 c -1.67969,-4.02767 3.11035,1.56873 0,0 z m 116.4033,5.56219 c -1.33873,-2.89377 -1.29261,2.67801 0,0 z m 10.34627,-0.5808 c -1.06826,-2.56528 -1.06856,2.56524 0,0 z m 7.21839,-0.36155 c -2.40987,-1.84184 0.0967,5.16599 0,0 z M 384.59504,773.3089 c -3.32152,-0.59075 2.75597,3.46765 0,0 z m -51.43012,-0.26758 c 18.65424,-18.6277 -13.25813,-8.53774 0,0 z M 228.1355,771.97974 c -1.80331,-2.306 -0.25852,3.42366 0,0 z m 99.66433,-1.33984 c 11.15424,-11.97641 -5.36071,-2.3986 0,0 z m 168.30155,1.36807 c -3.1622,-4.54863 -5.08531,3.58302 0,0 z m -5.6995,-0.79755 c -2.13474,-7.25071 -4.4399,5.36843 0,0 z m -151.10392,-0.068 c -1.06857,-2.56525 -1.06827,2.56529 0,0 z m 45.71622,-0.87125 c -1.08967,-3.43318 -1.08966,3.43319 0,0 z m 122.23055,-0.87125 c -1.06826,-2.5651 -1.0685,2.56505 0,0 z M 360.779,767.36698 c 7.13918,-1.66086 -2.96595,-2.50445 0,0 z m 24.23518,0.40655 c 9.23448,-12.64431 -9.05383,-0.3531 0,0 z m -153.03623,-2.58471 c -2.72899,-2.58203 2.22982,7.73213 0,0 z m 122.23796,1.30683 c -1.06849,-2.56505 -1.06825,2.56508 0,0 z m 3.084,-1.59738 c -2.8234,-5.99785 -0.73489,10.79118 0,0 z m 134.39203,1.10365 c 5.6991,-18.80722 -13.72997,-2.55127 0,0 z m -139.56065,-2.65584 -1.70831,1.02726 1.70831,-1.02726 z m -6.09622,0.28216 c 1.19232,-10.98661 -3.57402,5.42303 0,0 z m -30.79826,0.54399 -1.33547,-0.42871 1.33547,0.42871 z m 48.60357,-3.28615 c -2.22923,-18.14165 -6.79312,3.81759 0,0 z m 15.39914,0.47344 c -2.282,-12.77279 -5.78529,3.721 0,0 z m 4.81223,0.4373 c -0.47009,-8.09038 -4.87679,0.52706 0,0 z m -44.39276,-0.95605 c -1.79926,-8.62505 -4.76986,5.58129 0,0 z m 9.2594,-0.13833 c -0.58226,-5.55248 -4.08066,4.89369 0,0 z m 4.46424,0.21602 c 4.06366,-12.08294 -5.5856,-1.31703 0,0 z m -9.27244,-0.52169 c -0.66583,-7.7385 -5.50016,2.7577 0,0 z m 12.78478,-1.8971 c -3.50255,-1.55324 -0.2692,3.22659 0,0 z m 129.56694,-0.68049 c -2.233,-2.27616 -0.3231,3.98458 0,0 z m 20.47757,-1.78867 c -5.32269,-0.82398 2.25816,6.24702 0,0 z m 5.11748,2.10503 c 0.223,-5.39066 -2.35923,1.98071 0,0 z m 110.53076,0.35271 c 11.02458,-18.03393 -13.3708,-12.17711 0,0 z m -382.90288,-2.15747 c -1.43631,-3.76786 -2.9038,4.805 0,0 z m 256.97298,0.61511 c -0.42018,-2.52236 -1.60514,1.50164 0,0 z M 365.284,756.04032 c -0.75608,-2.29771 -0.87109,2.53163 0,0 z m 133.7799,-0.29034 c -1.23779,-3.164 -0.8715,3.59708 0,0 z m 113.86512,0.52546 c 11.45327,-17.11212 -12.56284,-11.38852 0,0 z m -280.36819,-1.43102 c -1.80331,-2.30599 -0.2585,3.42367 0,0 z m 180.57506,-1.4365 c -3.62411,-1.02985 2.26915,4.49183 0,0 z m -6.80364,-0.44388 c -2.64392,-1.58668 0.96618,3.34429 0,0 z m 93.11189,-2.8304 c 0.50191,-15.97268 -8.40884,-0.0463 0,0 z m -78.72517,0.38862 c -1.9068,-4.28895 -2.0989,3.91869 0,0 z m 85.1952,-0.52113 c 0.17,-8.47757 -2.29067,3.71574 0,0 z m -57.93179,-0.47388 c 5.03281,-9.77551 -5.85107,2.98148 0,0 z m -15.71405,-0.10465 -1.42789,-0.32364 1.42789,0.32364 z m 7.44401,-1.48517 c 0.22945,-7.22719 -4.27662,1.63735 0,0 z m -387.42585,-2.95556 c -1.2107,-8.11149 -6.54451,5.83668 0,0 z m 388.8844,0.0226 c -0.75561,-2.29781 -0.8715,2.53133 0,0 z m 7.04998,-2.61386 c -1.16202,-3.16147 -1.16203,3.16146 0,0 z m -5.36563,-0.29046 c -1.06851,-2.56502 -1.06825,2.5651 0,0 z m 2.31927,-1.06201 c -2.0729,-4.77036 -0.95678,5.81754 0,0 z m 49.67283,-1.52261 c -4.08786,-2.39853 2.9216,7.17603 0,0 z m 111.9725,0.84213 c -0.86952,-4.70075 -0.43779,3.64253 0,0 z m -164.44586,-0.58089 c -1.39157,-4.8408 -0.83287,4.20011 0,0 z m 172.06882,-1.43759 c 9.8116,-17.84609 -12.49916,-35.13006 -9.83685,-7.87597 1.8565,3.97006 5.8481,6.47314 9.83685,7.87597 z m -9.64413,-13.64115 c -1.48845,-2.96541 2.79616,0.40227 0,0 z m 6.60483,-6.02775 c -3.43846,-5.7645 9.3191,5.33146 0,0 z m -114.47734,19.65444 c -0.91941,-3.4706 -0.58124,3.11975 0,0 z m -85.71382,-1.74261 c -1.11939,-5.23643 -1.34086,5.48999 0,0 z m 29.56551,0.18148 -0.0886,1.04948 0.0886,-1.04948 z m 0.63367,-1.63363 c -1.06857,-2.56524 -1.06826,2.56528 0,0 z m -392.02113,-4.94169 c 13.00655,-0.85063 -7.07605,-4.17742 0,0 z m 133.21184,0.29487 c 32.49359,-15.16525 -23.1876,-14.40943 0,0 z m -2.37434,-1.54634 c -2.86139,-4.17928 4.25202,0.86702 0,0 z m 55.22028,1.54634 c -1.33874,-2.89376 -1.2926,2.67801 0,0 z m -91.91354,-1.17994 c 1.05462,-9.77601 -9.45407,6.72252 0,0 z m 455.66591,-2.50154 c -5.38249,-4.47416 1.41333,8.6811 0,0 z m -452.2973,1.64853 c -0.89265,-4.70701 -1.62251,2.61261 0,0 z m 192.93917,-0.62612 c -2.99565,-2.60332 0.94958,4.0933 0,0 z m 77.92908,1.13441 c 15.14275,-5.33378 -6.02323,-5.83509 0,0 z m 183.64661,-0.79874 c -1.0251,-2.51171 -1.10849,3.00248 0,0 z m -425.96365,-2.38038 c 2.92206,-11.92581 -7.82542,-0.0371 0,0 z m 238.28677,1.21877 c -1.35934,-4.07316 -1.35934,4.07318 0,0 z m 9.2872,-0.39425 c -2.59149,-3.76732 -0.18307,5.23812 0,0 z m 4.91547,-0.62222 c 3.46302,-10.19282 -9.11283,3.24817 0,0 z m 158.54356,-0.91257 c 5.08162,-21.17912 -5.58695,5.4489 0,0 z m -153.15272,0.44818 c 1.12276,-8.10536 -7.3154,0.0898 0,0 z m 162.54933,-0.55219 c -1.08989,-3.43323 -1.0894,3.43344 0,0 z m 79.47397,0 c -1.16223,-3.16155 -1.16183,3.16172 0,0 z M 681.688,723.22256 c -2.97404,-7.26637 -2.26035,7.09247 0,0 z m -316.97028,0.0971 c -1.99759,-3.91073 -1.00782,4.80038 0,0 z m -114.44597,-0.0971 c -1.08969,-3.43336 -1.08966,3.43339 0,0 z m 526.89379,-0.64661 c -2.77828,-2.11878 1.30947,3.95011 0,0 z m -626.28889,0.26293 c 3.10186,-8.66184 -8.73298,4.5967 0,0 z m 216.09162,0.0928 c -1.33849,-2.89391 -1.29277,2.67805 0,0 z m -123.33835,-1.38785 c 14.14929,-3.28919 -18.32593,0.31434 0,0 z m 451.77286,0.20791 c -1.31133,-6.32551 -3.14696,5.1225 0,0 z m 6.25594,-2.542 c -7.26083,-3.67128 -1.04302,7.17115 0,0 z m -407.42007,0.10983 c -2.81491,-0.72702 1.37069,3.38061 0,0 z m 477.67863,0.99825 c -0.61925,-3.11429 -0.89049,3.42991 0,0 z m -214.14417,-1.45215 c -2.14925,-3.49949 -2.15655,3.07997 0,0 z m -135.22362,-1.22385 c -1.81313,-2.2663 -0.55385,3.36096 0,0 z m 351.00092,0.30404 c -1.64287,-2.13772 -0.0816,4.65757 0,0 z m -337.91963,-1.52941 c -2.06847,0.18919 2.86043,2.13438 0,0 z m 282.38953,-0.19885 c -2.85306,-4.71733 -0.43364,6.21725 0,0 z m 28.39211,-0.54099 c -1.57993,-7.9971 -4.27532,4.58241 0,0 z m -496.40669,-0.34558 c -2.36922,-1.55591 0.42459,3.18249 0,0 z m 38.4029,-0.0594 c 5.40952,-25.64981 -22.48522,11.0729 0,0 z m -8.06043,-1.6332 c 0.75609,-2.29771 0.8711,2.53163 0,0 z m -0.48125,-6.97023 c 1.33887,-2.894 1.29271,2.67817 0,0 z m -39.21965,8.09773 c -1.80331,-2.30602 -0.25852,3.42367 0,0 z m 501.35979,-0.80684 c -2.49221,-3.02642 -0.17781,5.05371 0,0 z m -498.47246,0.19723 c 6.37788,-3.08289 -9.91848,-2.70765 0,0 z m 166.00795,0.0852 c -0.73897,-4.08044 -4.89403,5.93374 0,0 z m 321.95197,-0.83175 c -1.69405,-3.61842 -2.15069,1.7714 0,0 z M 437.37717,711.9317 c -2.23277,-2.27593 -0.32308,3.98435 0,0 z m 281.10957,0.71697 c -0.49271,-5.85434 -4.4614,3.29221 0,0 z m 25.51962,-1.00937 c -0.1434,-4.49754 -1.91185,3.11125 0,0 z m -35.12933,-1.16169 c -0.90158,-3.14454 -1.74657,1.61812 0,0 z M 150.09719,708.9482 c 8.94885,-6.26221 -8.68287,0.50836 0,0 z m 581.87854,0.62384 c -1.06827,-2.56528 -1.06858,2.56525 0,0 z m -39.46028,-0.25614 c -0.41998,-2.52238 -1.6051,1.50156 0,0 z m 44.81929,-1.05079 c 9.44961,-23.38023 -24.70084,-2.1802 0,0 z m -494.51709,0.13574 c 14.72879,-1.37659 -14.08263,-4.31662 0,0 z m 481.44395,-1.00699 -0.59283,0.0114 0.59283,-0.0114 z m 6.27051,1.11326 c 3.90804,-9.98581 -6.79401,-1.63168 0,0 z m 8.42137,-0.67768 c -1.02508,-2.51172 -1.10849,3.00247 0,0 z m -419.38562,-2.06728 c -1.80343,-2.30547 -0.25827,3.4234 0,0 z m 398.45245,0.32477 c -1.06826,-2.56509 -1.06849,2.56505 0,0 z m 7.69957,-2.3438 c -3.65092,-3.55613 -1.29243,6.06155 0,0 z m -356.5861,0.60119 c -1.29291,-2.67812 -1.33857,2.89396 0,0 z m 149.66031,-0.5808 c -1.29273,-2.67816 -1.33888,2.894 0,0 z m 2.88734,0.32466 c -0.42019,-2.52237 -1.60516,1.50165 0,0 z m -86.37951,-0.90556 c -1.10864,-3.00247 -1.02489,2.51171 0,0 z m 277.75366,-1.27058 -0.0885,1.04937 0.0885,-1.04937 z m 8.25798,-0.90761 c 2.66979,-22.05098 -13.25586,-10.77382 0,0 z m -445.65485,0.58091 c -3.05639,-4.55593 -2.42031,5.32288 0,0 z m 162.19767,0.39209 c -1.37753,-2.94368 -1.37774,2.94366 0,0 z m 289.20772,-0.56094 c 1.02979,-7.00586 -4.64652,4.91687 0,0 z m -478.84257,-0.82642 c -5.15824,-7.76273 -10.57767,6.08716 0,0 z m 34.32823,0.10951 c -1.7653,-1.9037 -0.31047,2.39914 0,0 z m -9.66048,-0.3868 c 0.1291,-5.20742 -2.78531,1.60472 0,0 z m 451.59007,-2.55647 c 16.23534,-9.62436 -9.66984,-2.24646 0,0 z m -436.331,1.14283 c -3.58273,-4.87514 -2.24688,6.97244 0,0 z m 147.70662,-2.50317 -1.46218,1.58882 1.46218,-1.58882 z m 251.2919,0.0712 c -3.09565,-4.9669 0.4011,6.50539 0,0 z m 21.00272,0.171 c -3.75152,-1.01822 1.80071,3.65457 0,0 z m 66.65503,1.64119 c -0.42017,-2.52238 -1.60515,1.50164 0,0 z m 2.40607,-0.90555 c -0.32398,-7.6981 -2.21518,3.82214 0,0 z m -501.91534,-1.38096 c -0.18127,-7.04768 -4.91272,2.62003 0,0 z m -145.3128,-1.56037 c 1.50494,-8.95913 -5.70677,5.02678 0,0 z m 448.85406,0.14599 c -1.65513,-2.69147 -0.58897,3.99046 0,0 z m 155.26407,-0.25405 c -3.04511,-7.2796 -0.98653,4.43781 0,0 z m -582.64631,-0.18149 c -1.61131,-7.69443 -7.25294,5.37439 0,0 z m 103.62961,0.32667 c -3.08706,-4.51234 -0.7081,2.27561 0,0 z m 517.0944,0.04 c 12.01361,2.28647 -2.95444,-11.67649 0,0 z m -212.32432,-2.01664 c 2.76123,-8.59549 -4.70443,1.88025 0,0 z m 14.76188,0.23391 c -1.55302,-2.94221 -1.5528,2.94224 0,0 z m 165.95387,-0.24793 c 17.07838,-4.67868 -17.05913,-2.85763 0,0 z m 12.57973,-0.0767 c -1.67589,-2.16169 0.13469,3.15551 0,0 z m 7.69957,0.64942 c -0.41982,-2.52285 -1.60541,1.50166 0,0 z m 9.23606,-0.76045 c 0.63651,-7.62411 -12.45131,7.60509 0,0 z m -335.02388,-0.16334 c -0.52969,-5.87357 -3.22816,2.2264 0,0 z m 314.96028,0.0183 c -1.29264,-2.67817 -1.33878,2.89403 0,0 z m 5.53413,-2.96862 c -4.97108,-1.62817 1.00541,6.61507 0,0 z m -22.72461,1.48355 c -6.31903,-15.48296 -16.67416,5.82608 0,0 z m -8.73504,-3.41271 c -1.69401,-4.54907 7.21552,5.00385 0,0 z m 35.79061,3.15517 c -2.64573,-3.43464 -2.88731,3.70818 0,0 z M 438.50561,688.3121 c 5.83063,-13.15926 -7.25283,-5.68187 0,0 z m 311.27542,0.89562 c -2.14806,-3.15463 -1.74156,3.60117 0,0 z m -335.41229,0.0346 c -0.75561,-2.29779 -0.87149,2.53134 0,0 z m -284.11347,-1.83746 c -1.94819,-7.33549 -6.0695,5.27737 0,0 z m 428.96154,0.095 c -1.06849,-2.56506 -1.06825,2.56508 0,0 z m -149.6603,-2.32343 c -0.7955,-6.5717 -0.75822,5.51484 0,0 z m -258.89786,0.24212 c -1.90316,-3.06549 -1.00732,3.89177 0,0 z m 562.30879,0.33879 c 0.67124,-4.42082 -3.49103,2.72586 0,0 z m -667.528092,-0.8511 c 2.959477,-7.13845 -4.757046,3.81669 0,0 z m 357.620682,0.27017 c -1.02535,-2.51156 -1.10824,3.00268 0,0 z m 37.68574,-1.12535 c -2.2327,-2.27647 -0.32353,3.98445 0,0 z m 336.76669,-2.66726 -2.08578,1.43464 2.08578,-1.43464 z m -316.94632,2.6309 c -0.75611,-2.29777 -0.87121,2.53178 0,0 z m -48.12228,-3.48511 c -0.75608,-2.29771 -0.8711,2.53164 0,0 z m 21.92269,-1.61303 -1.07517,1.79068 1.07517,-1.79068 z m 27.09635,1.25471 c 28.47845,2.20981 21.54081,-50.76879 -4.69372,-33.82466 -19.43374,-3.11746 -6.5963,-43.80605 -20.28329,-11.84583 -7.09678,15.58747 3.65079,19.64718 10.03375,21.14273 -13.31702,11.58236 -13.97741,11.6411 -13.21967,15.23384 7.90892,12.22543 17.97654,-23.28152 25.72021,5.00453 l 2.44272,4.28939 0,0 z m 12.33713,-7.43482 c -5.1551,-7.30903 5.1558,0.68032 0,0 z m -3.41821,-1.18953 c -2.06983,-4.90901 4.21165,2.71136 0,0 z m -13.42491,-4.691 c -11.21145,-14.8019 4.10236,-24.03095 0,0 z m 13.71488,-16.56483 c 1.60516,-1.50164 0.42009,2.5224 0,0 z m -22.13625,-0.9254 1.98109,0.13848 -1.98109,-0.13848 z m -6.25586,-2.23501 c 1.60248,-3.84772 1.60251,3.84766 0,0 z m 28.51243,0.48659 c -2.76579,-2.92535 2.98487,0.43758 0,0 z m -34.76837,-2.49914 c 2.99617,-8.93304 10.21531,0.61114 0,0 z m 8.15875,-3.55529 c -0.4201,-5.9688 2.94886,6.15575 0,0 z m -4.46933,-13.69707 c -2.62498,-6.14346 6.00822,0.82326 0,0 z M 128.0412,679.96703 c 5.53503,1.87629 -1.45101,-3.89173 0,0 z m 271.47734,-0.0183 c -1.26069,-3.80678 -2.5888,4.74073 0,0 z m 377.01396,-1.56975 c 14.60532,-28.93819 -26.14394,-13.74201 -33.27389,-14.91261 11.60786,1.43931 28.38622,2.07925 33.27389,14.91261 z m -338.58388,-0.40106 c -1.69392,-3.61823 -2.15064,1.77136 0,0 z m -32.39438,-2.78498 -0.0885,1.04947 0.0885,-1.04947 z m 50.8861,-1.35958 c 2.46497,-7.76168 -4.57952,4.93587 0,0 z m -50.73361,-1.43576 c -1.0685,-2.56505 -1.06827,2.56509 0,0 z m 227.96927,0.22992 -0.88315,0.0327 0.88315,-0.0327 z m -613.58124,-2.0814 -0.08847,1.04938 0.08847,-1.04938 z m 400.04866,0.68978 c -1.06826,-2.56509 -1.0685,2.56505 0,0 z m 180.93975,-1.1274 c -0.25821,-3.42344 -1.8035,2.30552 0,0 z m -198.06257,-0.96774 1.86115,-1.3206 -1.86115,1.3206 z m 178.33247,-0.22832 c -2.35369,-3.57084 -2.23327,3.26224 0,0 z m 9.06409,-0.79227 c -1.9455,-5.02192 -2.29281,4.64129 0,0 z m -167.86767,-0.0527 c 0.93572,-9.98796 -5.61565,0.29373 0,0 z m 151.34456,-1.15426 c -3.7732,-10.31445 -4.50091,5.60018 0,0 z m 164.94609,0.49024 c 2.85378,-5.21921 -3.79608,0.10755 0,0 z m -339.87053,-0.81453 c -1.06833,-2.56503 -1.06834,2.56502 0,0 z m 183.82709,0 c -2.78052,-4.92963 -4.35642,4.54753 0,0 z m -7.45895,-0.58086 c -0.75582,-2.29772 -0.87126,2.53151 0,0 z m -6.12561,-0.68976 c -1.04141,-3.85194 -1.85446,3.05355 0,0 z m -156.4851,-2.0663 c -3.11578,1.1656 3.31588,2.98384 0,0 z m 153.36947,0.95336 c -2.26905,-2.0644 -1.21866,2.67251 0,0 z m 165.39063,-1.24672 c -0.9361,-5.87689 -4.87022,3.97926 0,0 z m -98.64325,-0.69177 c -0.9017,-3.14482 -1.74671,1.61825 0,0 z m 93.21692,-0.76035 c 5.24941,-5.51703 -3.4605,1.19988 0,0 z m -2.97279,-0.11608 c 9.09945,-7.25107 -8.1924,-0.94968 0,0 z m -321.01591,-1.24046 c -2.36948,-1.55593 0.4245,3.18263 0,0 z m 19.83012,-0.84673 c -0.73134,-4.36122 -2.52358,5.11258 0,0 z m -4.16497,-2.00792 c -0.87128,-2.5315 -0.75583,2.29773 0,0 z m 84.21398,-1.22385 c -2.13714,-2.72711 -0.96771,3.69913 0,0 z m -77.96545,-1.82562 c -3.13161,-2.42705 1.9752,7.47823 0,0 z m 301.01228,1.88777 c -1.10835,-3.00253 -1.02508,2.51154 0,0 z m -92.16947,-0.72606 c 0.66108,-11.04163 -3.58012,2.11206 0,0 z m -183.50939,-1.47662 c -2.82008,-7.26026 -2.65653,4.48355 0,0 z m 34.54766,-0.19601 c -2.92728,-1.1928 0.67879,3.85353 0,0 z m -83.45364,0.65613 c -0.87127,-2.53151 -0.75582,2.29773 0,0 z m 99.61311,-1.34111 c -0.75125,-8.24567 -5.33595,5.37309 0,0 z m -84.009,-1.95071 c 0.84123,-5.96127 -3.37918,3.25339 0,0 z m 71.92493,-1.02461 c 1.67118,-10.77685 -11.25839,11.75153 0,0 z m 144.36224,0.10447 c 2.81905,-7.88563 -8.25124,-0.98779 0,0 z m -135.64669,-0.72526 c -1.08957,-3.43328 -1.08967,3.43324 0,0 z m -37.24067,-2.30529 c -4.41889,-5.97911 1.75266,5.68755 0,0 z m 37.72186,-1.17983 c -1.53684,-5.98632 -1.99777,3.96699 0,0 z m 6.97775,0.29044 c -1.0249,-2.51173 -1.10861,3.00232 0,0 z m 142.68255,-0.29044 c -1.33028,-3.70089 -1.22293,3.51177 0,0 z m -185.22084,-1.04331 c -2.64427,-1.5869 0.96629,3.34429 0,0 z m 38.96079,0.73246 -0.92798,-2.03712 0.92798,2.03712 z m 110.49259,-2.07166 c -5.48674,-2.0123 5.0009,5.96232 0,0 z m 6.3025,1.22081 c -0.60879,-5.20232 -1.23856,5.11919 0,0 z m -209.86702,-0.76569 c -6.04701,-1.67748 1.79451,2.87795 0,0 z m 49.73021,1.05613 c -0.75582,-2.29773 -0.87127,2.53151 0,0 z m 8.49675,-0.87654 c -0.58476,-3.50123 -1.7463,7.81716 0,0 z m 131.23536,0.0401 c -9.92157,-12.38715 -43.08684,-1.28831 -12.86256,-2.23712 4.18906,0.38506 8.44517,4.08687 12.86256,2.23712 z m 7.91651,0.11639 c -3.42859,-10.95111 -1.45936,7.67384 0,0 z m -189.0338,0.13928 c -1.06841,-2.56529 -1.06842,2.56528 0,0 z m 78.92058,-0.29044 c -1.08969,-3.43324 -1.08959,3.43327 0,0 z m -67.37122,0.0344 c -0.41997,-2.52264 -1.60528,1.50169 0,0 z m 217.75333,-0.32469 c -1.5128,-2.84698 -1.60936,3.21459 0,0 z m -186.26257,-1.79995 c -3.26977,-1.0668 0.0434,4.19952 0,0 z m 26.06623,-1.00147 c -2.29899,2.08796 6.0191,3.89128 0,0 z m -30.81588,1.57473 c -0.0722,-6.90276 -4.8648,3.63041 0,0 z m 23.52633,-1.13661 c 10.67403,-2.76814 -1.94482,-4.59735 0,0 z m 4.59199,1.20155 c -0.87129,-2.5315 -0.75583,2.29772 0,0 z m 151.58519,-0.0811 c 0.52709,-9.16437 -5.03737,2.38934 0,0 z m -136.18606,-0.19825 c -1.46789,-6.98064 -6.9725,6.1636 0,0 z m 3.84977,-2.42175 -1.87052,1.37097 1.87052,-1.37097 z m -86.42375,0.0872 c -3.39743,-6.78919 0.21775,4.45855 0,0 z m 41.79037,-0.11329 c 2.43733,-6.84097 -8.22799,6.98815 0,0 z m -46.79898,-1.07628 c -1.77092,-4.47424 -1.7043,4.88609 0,0 z m 23.27275,0.60871 c 11.39803,-5.42257 -3.78917,-6.5315 0,0 z m 165.36657,0 c -1.08968,-3.43342 -1.08967,3.43344 0,0 z m -115.41824,-2.41687 c -2.22237,-4.42135 0.0605,7.7845 0,0 z m -15.23369,1.2552 c -2.30507,-4.05392 -2.30509,4.05391 0,0 z m -6.49648,-0.87128 c -0.87144,-2.53164 -0.75593,2.29783 0,0 z m 14.53286,-0.11617 c 3.14684,-8.72047 -8.42025,-0.22359 0,0 z m 156.78243,-0.46467 c -0.87128,-2.53151 -0.75582,2.2977 0,0 z M 464.8971,635.22303 c -1.55279,-2.94223 -1.55279,2.94223 0,0 z m 6.25596,-0.29042 c -1.08958,-3.4333 -1.08971,3.43322 0,0 z m 6.97767,0.29042 c -1.29273,-2.67805 -1.33863,2.89396 0,0 z m 201.27778,-1.33694 c 1.27418,-7.76307 -7.29303,10.00972 0,0 z m -210.8463,-0.17753 c 0.62915,-10.70551 -4.50763,6.12187 0,0 z m 19.67423,0.93361 c -0.75582,-2.29773 -0.87126,2.53151 0,0 z m 5.78774,-1.0153 c -1.59062,-7.77015 -0.89398,4.93093 0,0 z m -13.24666,-0.1464 c -1.06834,-2.56502 -1.06833,2.56503 0,0 z m 152.35062,-1.5242 c -3.11089,-1.55566 1.51581,3.84183 0,0 z m -169.16917,-3.25404 c -0.84896,-11.57124 -2.15097,14.64132 0,0 z m 9.11897,2.71095 c -2.23572,-3.02733 -0.21153,4.62234 0,0 z m 12.61656,1.16625 c -0.81894,-11.90851 -6.32518,-0.77224 0,0 z m 4.22621,-2.18211 c -3.93111,-2.7612 -0.95567,5.1282 0,0 z m -10.70713,0.32408 c -2.15505,-11.34675 -9.26261,1.33517 0,0 z m 17.31043,0.36486 c 2.94404,-5.23974 -4.19312,1.04578 0,0 z m -36.22308,-1.92432 c 12.69046,-10.76997 -7.11549,-3.44014 0,0 z m -0.64225,-3.19153 c -0.94427,-3.00909 2.46357,1.6538 0,0 z m 32.42156,2.8978 c -4.09543,-0.659 4.07447,4.9578 0,0 z m -25.25824,1.12711 c -1.2928,-2.67811 -1.33869,2.89403 0,0 z m 166.4253,-0.19284 c 1.61306,-6.42791 -6.89293,5.3038 0,0 z m -183.26806,-0.388 c -1.06833,-2.56503 -1.06834,2.56502 0,0 z m -13.10327,-1.27061 c -1.04157,-3.85206 -1.85464,3.05362 0,0 z m -23.46968,-0.47194 c -1.29279,-2.67812 -1.3387,2.89401 0,0 z m 66.40878,-0.29044 c -1.23813,-3.16378 -0.87125,3.59723 0,0 z m -24.06116,-0.56262 c -1.96976,-2.66474 -0.6316,3.46392 0,0 z m 16.04435,-0.88951 c -2.25522,-9.84357 -7.48957,6.89602 0,0 z m 22.93468,1.16171 c -1.83551,-3.30005 -1.79103,3.00502 0,0 z m 3.12994,-0.94133 c -3.88378,-3.40286 1.2594,4.36106 0,0 z m 145.08665,0.34225 c -0.52982,-5.87358 -3.22808,2.22657 0,0 z m -158.8035,-1.7586 c -1.55517,-2.1705 -0.16609,3.17227 0,0 z m 5.77468,0.61513 c -1.33871,-2.89402 -1.29281,2.67811 0,0 z m -62.55899,-0.89171 c -2.78253,-2.29586 -1.21128,3.94828 0,0 z m 27.16329,-2.2e-4 c -0.53508,-5.72772 -4.71324,7.51191 0,0 z m 10.10904,-1.84635 c 2.20927,-20.14322 -5.18191,3.36276 0,0 z m -32.16932,0.5722 c -2.49483,0.0204 1.77562,2.54765 0,0 z m 44.3779,0.22342 c -2.48678,-4.07007 -1.60464,5.20211 0,0 z m 25.67095,-1.11688 c 12.85547,-10.56554 -8.12076,-3.56968 0,0 z m -9.70553,0.15529 c -1.37456,-5.697 -0.91373,6.83623 0,0 z m -67.8524,0.29041 c -1.08968,-3.43323 -1.08958,3.43328 0,0 z m 62.42767,-2.59915 c -2.37499,-9.05655 -1.56701,8.59737 0,0 z m 133.72207,1.97079 c 8.2e-4,-6.11763 -3.10115,3.13218 0,0 z m -167.55633,-0.0146 -0.67023,-1.0829 0.67023,1.0829 z m 5.36242,-3.37727 c -0.72285,-13.20379 -5.58077,8.65312 0,0 z m -20.18088,1.93889 c 8.1247,-2.89139 -0.13846,-20.60171 0,0 z m 33.46875,-0.13425 c -4.92574,-13.83806 -0.61081,6.07291 0,0 z m 12.42795,0.18266 c 6.25722,-10.43552 -8.30531,-0.2236 0,0 z m 160.00022,-0.34426 c 6.08954,-7.62838 -9.3757,-6.6799 0,0 z m -169.37199,-1.42192 c 9.38324,-1.69404 -6.80289,-6.36526 0,0 z m 145.25391,-0.14955 c -0.18435,-5.55378 -4.38692,3.73976 0,0 z M 479.81507,618.3783 c -1.06834,-2.56502 -1.06833,2.56503 0,0 z m -49.5813,-0.43564 c 1.35049,-4.79715 -3.4114,0.33267 0,0 z m 38.78219,-0.20076 c 0.27755,-9.55657 -6.73469,2.78015 0,0 z m 22.82964,0.0556 c -0.87127,-2.53151 -0.75582,2.29773 0,0 z m 161.69083,-1.45213 c -1.14857,-5.2208 -2.09279,4.25517 0,0 z m -171.52455,-0.98743 c -2.44866,-12.09602 -2.05905,6.27792 0,0 z m 5.50275,0.92634 -1.42788,0.32356 1.42788,-0.32356 z M 418.45916,616.056 c -1.33869,-2.89402 -1.29281,2.6781 0,0 z m 15.89667,-1.62599 c -3.13163,0.75603 2.17097,3.09519 0,0 z m 222.06767,1.0457 c -1.27599,-4.12816 -2.26727,5.20408 0,0 z m -20.2111,-5.6e-4 c -0.87127,-2.5315 -0.75582,2.29773 0,0 z M 479.09316,614.8943 c -1.33861,-2.89397 -1.29272,2.67805 0,0 z m -6.49647,-1.16172 c -1.06843,-2.56526 -1.06842,2.56529 0,0 z m -38.59403,-0.69701 c 1.95918,-6.49949 -4.66223,4.82334 0,0 z m 30.29287,-0.80359 c -2.75851,-0.98621 0.63478,3.29703 0,0 z m 5.24192,0.62933 c 0.42613,-7.37916 -6.75758,4.44951 0,0 z m 195.54833,0.29043 c -2.02366,-3.23091 -2.02367,3.2309 0,0 z m -205.96334,-2.10072 c -2.94904,-4.3471 -0.67507,7.33417 0,0 z m 27.35386,-0.23553 c -7.44983,-12.73259 -6.74987,4.66945 0,0 z m 8.45785,1.40283 c -0.90677,-6.4092 -6.55106,3.36967 0,0 z m 174.12174,-1.03687 c 14.37438,-7.99499 -6.32206,-5.08696 0,0 z M 456.2351,610.53794 c -1.08968,-3.43343 -1.08968,3.43342 0,0 z m 32.9638,-0.62131 c -2.40872,-7.42745 -1.70258,7.06983 0,0 z m -15.15851,0.0949 c -2.47825,-3.0941 -1.59389,3.93348 0,0 z m 4.33096,-0.63523 c 6.49961,-14.22679 -6.98722,-7.11482 0,0 z m -24.32859,0.34283 c 2.68858,-6.35344 -4.92312,0.64371 0,0 z m 44.71401,-0.92369 c -2.89428,-1.64169 1.49224,-2.88651 0,0 z m 176.17918,-0.90042 c -3.61297,-3.09695 -0.68042,4.83058 0,0 z m 1.79545,-0.66787 c -2.89056,-1.69412 1.51839,3.1956 0,0 z m -195.05768,-0.97613 c -3.06974,-1.26504 0.79575,3.90966 0,0 z m 10.65306,1.09227 c -1.06842,-2.56529 -1.06843,2.56528 0,0 z m -57.26549,-0.93341 c -2.28951,-4.65398 -1.81482,4.27323 0,0 z m 21.97053,-1.09543 c -4.05358,-9.36616 -0.6681,5.26975 0,0 z m 39.70619,0.86713 c -0.48976,-5.08343 -4.5229,5.37342 0,0 z m -44.83387,0.32472 c -0.42009,-2.52242 -1.60517,1.5016 0,0 z m 21.74321,-1.03142 c -2.0682,0.19066 2.86096,2.13376 0,0 z m 207.52818,0.16747 c 0.4998,-8.72357 -6.7753,5.00574 0,0 z m -210.02247,-0.69022 c -3.00924,-5.40756 -4.15458,4.36185 0,0 z m 14.12203,-1.72178 c 14.3908,2.71484 -8.98161,-7.29138 0,0 z m -1.34574,-2.12013 c -1.22472,-9.52969 5.18325,3.59512 0,0 z m 3.29468,3.56683 c 0.17525,-5.971 -2.91193,4.92929 0,0 z m 7.50891,-0.52844 c -1.08959,-3.43327 -1.08969,3.43323 0,0 z m 87.58258,0.29041 c -1.06834,-2.56502 -1.06833,2.56503 0,0 z m -151.58519,-1.16171 c -1.55298,-2.94238 -1.55296,2.94243 0,0 z m 34.52041,-3.79933 c -0.1218,-9.35075 -6.57061,14.30395 0,0 z m -11.42171,1.76637 c -1.53697,-5.98652 -1.99782,3.96705 0,0 z m 51.56536,-0.64112 -1.39241,-0.1574 1.39241,0.1574 z m -67.68631,-0.23016 c -1.83565,-3.30027 -1.79121,3.00517 0,0 z m 35.33063,-1.37549 c 4.82291,-10.00048 -5.78384,4.35417 0,0 z m 101.75762,0.91211 c 1.24092,-4.43939 -3.28995,1.43826 0,0 z m -129.62932,-0.91764 c -0.0728,-8.95802 -4.66482,4.71132 0,0 z m 3.10205,-1.19154 c -4.51271,-2.28005 2.31828,4.86578 0,0 z m 11.78195,0.32551 c -0.31183,-5.32487 -3.27856,5.44064 0,0 z m -5.002,-0.4336 c 5.3166,-7.16214 -6.50475,2.3432 0,0 z m 25.82209,0.40571 c 10.98777,-4.7043 -10.17985,-4.52745 0,0 z m 163.33649,-1.3554 c 10.0083,-15.43073 -15.15296,-4.80765 0,0 z m -182.03593,-0.29041 c -0.94176,-9.91117 -4.77723,-0.0443 0,0 z m -21.33569,-0.98221 c -0.71592,-7.32177 -3.28125,5.64544 0,0 z m 29.83582,-0.26257 c -1.09768,-5.51278 -2.41072,4.56432 0,0 z m 147.25414,0.0537 c 0.35709,-8.60209 -8.1331,3.0207 0,0 z m -141.56099,-1.68602 c 4.50183,-8.69731 -6.96294,3.77903 0,0 z m 135.30514,0.98931 c -1.55297,-2.94242 -1.55297,2.94242 0,0 z m -158.32232,-1.1617 c -1.74657,-4.79887 -1.79587,4.74822 0,0 z m 10.06014,0.14522 c -1.96355,-5.39693 -0.31895,3.05134 0,0 z m 23.51516,0.32672 c -1.04151,-3.85197 -1.85454,3.05359 0,0 z m -37.42509,-0.47194 c -0.75582,-2.29773 -0.87127,2.53151 0,0 z m 163.37519,0 c -0.75576,-2.29794 -0.87142,2.53148 0,0 z m -145.32934,-0.58079 c -1.29274,-2.67804 -1.33862,2.89397 0,0 z m 143.53477,-0.47194 c -1.65515,-2.69156 -0.5891,3.99064 0,0 z m -148.82631,-0.69345 c -2.33604,-3.81473 -2.28659,4.12269 0,0 z m 22.8562,-1.98779 c -3.66021,-3.12807 0.60398,10.22349 0,0 z m -45.33571,0.80864 c -3.89198,-8.74159 -6.72843,9.60953 0,0 z m 40.0423,0.31157 c -1.08959,-3.43327 -1.08968,3.43325 0,0 z m 171.04632,-0.0184 c 11.92709,-1.13372 3.97996,-7.13234 -1.37411,-1.31037 l 1.37411,1.31037 z M 467.0571,589.35795 c 22.88103,-13.9334 -4.25186,-17.18996 0,0 z m 5.53959,-1.07461 c -4.26463,-2.55145 0.84099,6.33271 0,0 z m 25.02359,1.63446 c -1.06833,-2.56503 -1.06834,2.56501 0,0 z m 6.80424,-2.32342 c -3.5742,-5.87995 -4.25216,11.1221 0,0 z m -50.59549,1.45213 c 2.18032,-12.44482 -5.49797,0.86315 0,0 z m 160.24711,0.61514 c -0.41996,-2.52264 -1.60527,1.50169 0,0 z m -163.13445,-2.41986 c -2.76774,-4.83771 -2.11827,4.87367 0,0 z m 31.65596,-0.13854 c -2.45181,-2.95553 -1.18488,4.33602 0,0 z m -18.97021,-0.38017 c -0.61896,-3.11439 -0.89063,3.42987 0,0 z m -25.91936,-0.29041 c -1.3387,-2.89405 -1.29281,2.6781 0,0 z m 18.76765,-1.16172 c -1.02499,-2.51167 -1.10852,3.00259 0,0 z m -24.78296,-2.35769 c -1.80332,-2.30577 -0.25849,3.42353 0,0 z m 15.64183,0.0302 c 0.22112,-8.30179 -5.88023,1.64516 0,0 z m 13.23154,0.35664 -1.14935,-0.38964 1.14935,0.38964 z m 183.14139,-1.77169 c 2.20725,-11.09643 -5.62661,6.78662 0,0 z m -180.35031,0.14124 c -0.3605,-10.34754 -7.0051,3.23199 0,0 z m 17.90147,0.11618 c -1.55279,-2.94222 -1.55279,2.94221 0,0 z m 2.88734,-0.90556 c -1.80338,-2.30594 -0.25852,3.42362 0,0 z m 151.31954,0.1795 c 6.94962,-8.81125 -4.71575,-0.38615 0,0 z M 448.7237,579.79742 c 9.1449,-4.52327 -4.38145,-3.21944 0,0 z m 20.98564,-0.59112 c -0.93275,-4.5581 -2.3733,3.87106 0,0 z m 10.58691,-1.2142 c -0.33621,-7.69007 -3.64197,3.81151 0,0 z m 4.81223,-0.30649 c -1.80341,-2.30589 -0.25849,3.42364 0,0 z m -22.13626,-0.20864 c 4.71092,-8.38352 -4.9598,1.37359 0,0 z m 128.00523,-0.33792 c -1.06835,-2.5651 -1.06835,2.5651 0,0 z m -130.52223,-2.32341 c -3.21248,-8.59773 -2.35566,7.27943 0,0 z m 27.75004,1.80341 c -1.63116,-3.26894 -2.3409,4.30773 0,0 z m 155.23519,-0.36532 c 0.0742,-4.63929 -3.33509,5.69961 0,0 z m -191.29577,-0.27639 c -0.75582,-2.29772 -0.87128,2.5315 0,0 z m 4.09042,-0.29043 c 0.19323,-7.67283 -5.7893,4.94935 0,0 z m 25.98605,0.29043 c 18.97375,-7.70025 -11.14048,-1.83495 0,0 z m -0.72182,-1.74255 c 0.75583,-2.29773 0.87127,2.53151 0,0 z m -47.40049,1.1617 c -1.06842,-2.56528 -1.06841,2.56529 0,0 z m 13.95551,-1.77683 c -1.8033,-2.30579 -0.25851,3.42347 0,0 z m 25.86537,-1.4167 c -2.76289,-7.00682 -1.87106,8.81912 0,0 z m 164.69885,0.87013 c -1.06834,-2.56503 -1.06835,2.56502 0,0 z m -195.76145,-0.69708 c -2.63269,-2.7071 -0.51829,2.85915 0,0 z m 27.41089,0.4099 c 4.79112,-10.15958 -7.64236,2.86332 0,0 z m 174.12522,-0.17755 c 15.42299,-15.02678 -14.94947,-9.36535 0,0 z m -177.5445,-0.94859 c 5.56482,-7.70051 -6.9814,0.035 0,0 z m -34.18171,-0.63691 c 4.39314,-9.82439 -4.93782,1.04178 0,0 z m 165.52881,-0.30751 c -1.8033,-2.3058 -0.25852,3.42348 0,0 z m -142.44192,0.0343 c -0.75592,-2.29781 -0.87141,2.53164 0,0 z m 119.82449,0 c -0.75601,-2.2977 -0.87125,2.53154 0,0 z m -124.30713,-1.24182 c 14.9491,-0.68937 -6.51342,-5.62845 0,0 z m 11.68495,0.22532 c 1.69415,-9.52818 -5.84778,2.48377 0,0 z m -16.34559,-0.72606 c -1.06841,-2.56528 -1.06841,2.56528 0,0 z m 25.74541,0 c -1.10862,-3.00233 -1.02489,2.51176 0,0 z m -38.2572,-1.45213 c -1.08967,-3.43344 -1.08967,3.43344 0,0 z m 44.41982,0.49985 c 0.29054,-3.70176 -3.07878,2.48321 0,0 z m 157.21257,-2.60146 c -2.15,-1.16593 0.27098,3.06717 0,0 z m -169.3904,-0.58088 c -2.14999,-1.16593 0.27097,3.06716 0,0 z m 186.73131,-0.24649 c 2.00231,-8.38341 -5.85244,4.21328 0,0 z M 459.20807,564.1631 c 0.26693,-6.77071 -5.16479,6.62127 0,0 z m 18.68211,0.19711 c -1.06834,-2.56501 -1.06832,2.56503 0,0 z m 179.01486,-0.8713 c -0.97417,-3.16344 -1.84708,5.54492 0,0 z m -20.82333,-1.05414 -1.34127,0.0403 1.34127,-0.0403 z m 2.51469,-1.29771 c -1.92699,-15.18194 -4.31268,4.95283 0,0 z m -163.11238,1.63997 c -0.8046,-7.91771 -11.9845,-1.9296 0,0 z m 11.85979,-1.17588 c -2.07117,-4.35495 -1.20072,7.00685 0,0 z m -21.96544,0.76034 c -0.42008,-2.52241 -1.60516,1.50161 0,0 z m 13.61995,-0.60717 c -1.70217,-3.58555 -1.75758,3.64814 0,0 z m 10.92239,-0.58881 c -0.61918,-3.11424 -0.8904,3.42997 0,0 z m 170.71379,-1.46066 c 21.228,-7.24303 -11.65212,-2.77026 0,0 z m -204.3994,1.17023 c -1.06842,-2.56529 -1.06843,2.56528 0,0 z m 200.0891,-0.51073 c -3.36782,-3.61486 -2.76487,4.63371 0,0 z m -14.4957,-4.91091 c -4.83592,0.6047 8.2954,11.92116 0,0 z m -219.27901,3.42294 c -0.41997,-2.52267 -1.60529,1.50172 0,0 z m 41.86645,-0.90556 c -1.06833,-2.56502 -1.06834,2.56502 0,0 z m 31.15841,-0.83759 c -0.65234,-7.58862 -3.0145,1.20112 0,0 z m -13.45771,-0.52994 c 0.21551,-8.5809 -7.27674,9.25114 0,0 z m 2.51066,0.20584 c -1.62812,-4.71368 -1.62813,4.71366 0,0 z m 2.23999,0.26536 c -0.0396,-4.38919 -2.30363,4.00022 0,0 z m -29.42911,-0.84622 c -0.75582,-2.29772 -0.87128,2.5315 0,0 z m 14.7946,-1.86904 c -5.27261,-3.65576 6.60165,7.80335 0,0 z m 4.21368,0.99776 c -1.53677,-5.98645 -1.99791,3.96686 0,0 z m -21.17381,0.0344 c -0.41995,-2.52268 -1.60528,1.50172 0,0 z m 11.06818,-0.32469 c -0.87143,-2.53165 -0.75594,2.29781 0,0 z m 169.38297,-0.1452 c 1.82863,-6.86097 -4.2177,1.72543 0,0 z m -143.15639,-1.01657 c -0.75582,-2.29771 -0.87127,2.53151 0,0 z m -16.67265,-0.98904 c 7.08736,-1.14248 -6.1033,-2.5272 0,0 z m 3.43904,0.73289 c -0.41996,-2.52265 -1.60528,1.50171 0,0 z m 96.12366,-1.53453 c 0.78812,-7.97037 -4.59183,4.59036 0,0 z m -89.90822,-0.25681 c 1.21857,-8.05859 -5.41032,4.20918 0,0 z m 2.58691,0.15972 1.64466,-0.22122 -1.64466,0.22122 z m 148.55752,0.1795 c -0.95257,-4.68364 -2.75573,3.67227 0,0 z m 5.65838,-1.32673 c -2.95614,-1.96946 1.04016,4.93186 0,0 z m -71.67813,0.66803 c -1.37766,-2.94355 -1.37768,2.94352 0,0 z m -109.15275,-0.97293 c 1.11936,-4.45802 -3.23159,1.01657 0,0 z m 29.36198,-0.73166 c -1.14119,-5.66544 -3.02565,3.5651 0,0 z m 1.68265,0.002 c 10.26626,-1.16065 -1.64991,-9.21215 0,0 z m 97.82838,-1.23789 c -1.95787,0.9501 1.87676,2.40244 0,0 z m -117.79749,0.0796 c -1.67759,-5.03068 0.0144,3.75778 0,0 z m 4.81223,-0.61514 c -1.80341,-2.30591 -0.25851,3.42365 0,0 z m 7.21838,-0.25614 c -1.08959,-3.43328 -1.08969,3.43324 0,0 z m 3.36852,-0.93343 c -2.84802,-3.35152 -0.87898,4.98369 0,0 z m -5.76502,-0.82317 c -1.02723,-5.52194 -3.92727,5.10791 0,0 z m -7.89971,-2.44248 c -2.49494,0.0206 1.77579,2.54768 0,0 z m 12.70228,-1.40789 -1.54781,2.06335 1.54781,-2.06335 z m 14.43668,2.15613 c -0.14362,-4.49746 -1.91171,3.11146 0,0 z m -21.1738,-2.64811 c -2.28346,-4.22924 -4.79773,2.27322 0,0 z m 18.28647,-0.91423 c -4.92312,-9.09963 -6.86184,5.13109 0,0 z m -15.01011,0.28983 c -1.37767,-2.94354 -1.37768,2.94353 0,0 z m 4.90448,-0.53731 c -0.75601,-2.29769 -0.87126,2.53154 0,0 z m 1.72787,-0.94334 c -3.1108,-1.55561 1.51589,3.84173 0,0 z m -21.99431,-0.84023 c -2.46358,-1.65369 0.94439,3.00903 0,0 z m 32.46313,0.18623 c 11.75097,-14.87303 -8.10546,-0.0257 0,0 z m -19.41509,-1.90819 c -3.08945,-1.77314 -0.10965,4.76865 0,0 z m 5.50026,1.24817 c -0.83158,-3.40247 -2.52978,2.21944 0,0 z m 168.56964,-0.45597 c -2.58028,-2.40454 -1.21918,4.01835 0,0 z m -164.03836,-1.66439 c -3.00749,-6.71632 -2.81583,4.77491 0,0 z m 6.13214,0.0227 c 6.43092,-9.42213 -8.14288,-0.66212 0,0 z m -35.89377,0.61379 c -0.90172,-3.14481 -1.7467,1.61828 0,0 z m 10.43788,-1.16831 c -3.39138,-4.04995 1.60588,3.90749 0,0 z m 4.84093,1.05836 c 5.38439,-4.89193 -6.01716,0.70983 0,0 z m 8.03549,-0.16601 c 3.16907,-8.77063 -5.93284,1.47585 0,0 z m 151.20618,-1.1074 c 6.9157,0.0127 -1.33122,-4.11864 0,0 z m -169.70825,0.54893 c -1.01156,-5.16015 -3.69502,3.94239 0,0 z m 192.66242,-0.62884 c -4.25101,-9.92056 -7.00536,9.05737 0,0 z m -190.41457,-0.34987 c 1.37377,-7.10026 -3.93055,2.52583 0,0 z m -28.2339,-0.83495 c -1.3387,-2.89403 -1.2928,2.6781 0,0 z m 21.17382,0.0621 c -0.96782,-3.69906 -2.1372,2.72714 0,0 z m 25.28398,-0.68165 c -0.37302,-3.8077 -2.9528,3.81354 0,0 z m 13.36976,-0.19497 c -0.0675,-3.92736 -2.18537,3.77918 0,0 z m -10.5053,-2.68236 c -4.79003,-3.70487 2.72524,7.9598 0,0 z m -14.32066,1.31809 c -1.42384,-8.62744 -9.84771,12.72007 0,0 z m -7.09067,-1.05021 c -1.68248,-3.34808 -0.34309,4.17201 0,0 z m 17.32404,-2.23852 c -5.58844,-1.88396 -0.12546,6.48826 0,0 z m 16.36149,2.88793 c -0.90156,-3.14461 -1.7466,1.61811 0,0 z m 138.02415,-1.00528 c 2.58961,-21.68448 -6.6248,5.26819 0,0 z m -161.60404,-0.48144 c -0.75582,-2.29772 -0.87127,2.5315 0,0 z m 14.91786,-0.87127 c -0.80994,-5.54416 -0.73232,4.65692 0,0 z M 469.3003,528.0566 c -1.16196,-3.16159 -1.16193,3.16163 0,0 z m 18.19897,-0.72605 c 0.7302,-12.0272 -3.78739,3.36174 0,0 z m 17.38802,-1.13982 c -2.75355,0.11411 4.25976,5.38858 0,0 z m -6.17371,1.25549 c -0.31353,-9.78999 -7.19333,1.91389 0,0 z m -20.59582,-0.81637 0.32984,-1.8526 -0.32984,1.8526 z m 6.26828,-1.56122 c -3.48494,-4.01596 0.87918,4.54797 0,0 z m 8.90317,-0.26885 c -2.13713,-2.72709 -0.9677,3.69912 0,0 z m -21.9622,-1.38998 c -1.14445,-3.94798 -1.33022,3.1464 0,0 z m 29.50928,-0.39935 -0.0885,1.04946 0.0885,-1.04946 z m -31.12695,-1.3432 c -1.08968,-3.43344 -1.08968,3.43343 0,0 z m 18.32259,0.13069 c -1.76531,-1.90366 -0.31036,2.39938 0,0 z m -2.44218,-0.37361 c 3.17045,-6.14326 -4.98728,2.21148 0,0 z m 8.66192,-1.20922 c -1.06842,-2.56529 -1.06843,2.56528 0,0 z m -27.91084,-0.87128 c -0.91979,-3.47043 -0.58113,3.11991 0,0 z m 314.08651,0.24145 c 4.20905,-5.75547 -4.17809,0.0993 0,0 z m -291.46908,-0.85657 c -1.80338,-2.30595 -0.25852,3.4236 0,0 z m 3.36852,-0.87128 c -1.80341,-2.30592 -0.25851,3.42365 0,0 z m 5.18319,0.14319 c -1.9082,-3.46781 -1.86465,3.81478 0,0 z m -29.00371,-2.43232 c -3.1798,-0.99419 1.32174,3.83392 0,0 z m 15.19498,0.2116 c 1.92461,-5.56059 -8.25327,8.07847 0,0 z m 9.34743,0.36926 c -0.75576,-2.29793 -0.87142,2.53147 0,0 z m -51.55739,-0.87129 c -3.42076,-7.15898 -3.91612,2.35505 0,0 z m 30.62422,-0.35898 c -2.15006,-1.16596 0.27096,3.06719 0,0 z m 24.42202,0.86416 c 12.42645,-6.96755 -49.41669,-16.27444 -7.63563,-3.48596 3.1409,0.005 5.30975,1.89791 7.63563,3.48596 z m -19.1286,-1.70116 c -1.67609,-2.16154 0.13471,3.15552 0,0 z m 9.34324,-1.56305 c -3.23642,-5.77706 0.87597,4.36323 0,0 z m -10.78688,-0.6918 c -0.42009,-2.5224 -1.60515,1.50165 0,0 z m 7.69957,-0.29042 c -0.59588,-3.4291 -1.89574,2.63808 0,0 z m 9.1432,0.0278 c -0.57373,-3.28562 -2.3481,1.90767 0,0 z m -31.11346,-1.53932 c -1.59566,-2.34595 0.64308,2.98669 0,0 z m 17.39857,0.31548 c -0.75582,-2.29772 -0.87127,2.53151 0,0 z m 20.45201,-0.54658 c -0.2585,-3.42352 -1.80333,2.30579 0,0 z m 3.69791,-3.20548 c -0.83399,-17.47574 -8.90605,-4.92579 0,0 z m -26.4683,0.78546 c 5.09918,-9.15169 -3.40208,-0.97668 0,0 z m 7.85252,0.35277 c -1.08969,-3.43324 -1.08959,3.43328 0,0 z m 4.33096,0.29042 c -1.69728,-4.91228 -4.57589,2.73307 0,0 z m -17.08339,-1.16171 c -0.75582,-2.29771 -0.87127,2.53152 0,0 z m 314.9779,-1.18288 c 9.74232,-6.39531 -6.22588,0.2908 0,0 z m -300.78185,-0.23464 c -0.41996,-2.52264 -1.60528,1.5017 0,0 z m 8.18075,-1.4864 c -1.06843,-2.56529 -1.06843,2.56529 0,0 z m 10.34636,0 c -1.33871,-2.89403 -1.29281,2.6781 0,0 z m -38.73847,-0.80915 -1.14936,-0.38963 1.14936,0.38963 z m 13.95551,-1.58283 c -2.15006,-1.16593 0.27097,3.06719 0,0 z m 28.28181,0.54051 c -1.04157,-3.85212 -1.85466,3.05365 0,0 z m -23.12821,-0.83601 c -1.57343,-4.74302 -2.5371,4.20402 0,0 z m 19.22104,-2.25726 c 0.73607,-15.19431 -7.2575,3.09246 0,0 z m -7.53189,-0.89806 c -1.91837,-2.83196 -1.11335,3.61951 0,0 z M 461.5286,496.6909 c -1.08959,-3.43327 -1.08969,3.43324 0,0 z m 46.67858,-2.46313 c -4.30669,-2.42604 0.1148,8.69358 0,0 z m 280.31223,1.01102 c -1.29268,-2.67794 -1.33857,2.89375 0,0 z m -293.78647,-1.38963 c -2.10717,-3.31643 -1.01529,4.37768 0,0 z m -9.8651,-1.51465 c -1.02491,-2.51175 -1.1086,3.00234 0,0 z m -6.45134,-1.19084 c 0.41275,-4.861 -4.76744,4.94309 0,0 z m 10.10501,-0.2613 c -1.78002,-3.76594 -1.82239,3.51854 0,0 z m 268.47782,-2.03297 c -1.06843,-2.56528 -1.06843,2.56528 0,0 z m -250.47641,-0.58075 c -0.75576,-2.29793 -0.87142,2.53147 0,0 z m 247.58907,0.0344 c -0.25852,-3.42362 -1.80339,2.30593 0,0 z m -254.56682,-2.03302 c -0.42009,-2.52239 -1.60516,1.50162 0,0 z m 246.38607,-1.77682 c -1.23798,-3.16381 -0.87123,3.59706 0,0 z m -254.77911,-5.76943 c 1.24041,-6.6251 -4.87317,5.59927 0,0 z m 6.3178,-1.54151 c 14.31689,3.06652 -5.87848,-6.51924 0,0 z m -7.06805,-2.38367 c -2.76166,-2.28092 -0.42509,3.15143 0,0 z m -4.33096,-0.79501 c -1.67608,-2.16152 0.13471,3.1555 0,0 z m -4.33096,-1.17001 c -2.26265,-3.56973 -1.61915,4.30861 0,0 z m 12.51171,-0.006 c -1.90328,-3.0655 -1.00702,3.89179 0,0 z m -10.58682,-0.24201 c -1.06833,-2.56503 -1.06834,2.56502 0,0 z m 201.15112,0 c -1.06833,-2.56503 -1.06834,2.56502 0,0 z m -213.05069,-2.36248 c -3.18283,-2.06542 1.5913,4.85125 0,0 z m 20.08032,1.20067 c -1.06833,-2.56501 -1.06832,2.56503 0,0 z m -4.51536,-0.58085 c 3.14432,-6.80167 -7.01362,4.59451 0,0 z m 190.74861,0 c -1.33871,-2.89401 -1.2928,2.67811 0,0 z m 45.93621,-0.54072 c 0.29411,-3.15593 -1.75082,2.00428 0,0 z m 1.9956,-1.04453 c -2.49502,0.0203 1.77559,2.54781 0,0 z m -249.16981,-0.3021 c -2.34073,-7.93135 -3.0992,6.54257 0,0 z m 5.67241,-0.19271 c 3.43873,-10.41946 -3.82344,3.93271 0,0 z m 7.64218,-2.57773 c -3.037,-0.32626 1.49446,3.4637 0,0 z m -11.06228,0.59226 c -0.75582,-2.29771 -0.87127,2.5315 0,0 z m 16.12096,-0.87127 c -1.03324,-3.32817 -2.06262,4.84016 0,0 z M 125.63504,1042.9896 c 13.15763,-27.8279 56.70287,-29.3313 77.39244,-12.0683 -13.22717,-2.1141 2.8228,21.0406 -19.1048,14.809 -19.56399,-2.4091 -38.78264,-2.4668 -58.28764,-2.7407 z m 73.62708,-2.912 c -0.87114,-2.5315 -0.75603,2.2978 0,0 z m -8.48708,-8.1319 c -2.5812,-8.2966 -3.90077,7.1874 0,0 z m -2.09982,-4.9373 c -1.53694,-5.9862 -1.9977,3.967 0,0 z m 17.80529,16.5544 c 1.06821,-2.5654 1.06862,2.5652 0,0 z m 1.68426,0 -2.25569,-5.1507 2.25569,5.1507 z m 4.83582,-1.8362 c -5.088,-31.1553 46.79746,-9.9412 13.19416,-0.2759 l -6.64034,0.9912 -6.55382,-0.7153 z m 7.12229,-7.1484 c -0.26297,-4.5474 -2.32503,3.5714 0,0 z m 7.53143,0.2718 c -1.29291,-2.6782 -1.33857,2.8938 0,0 z m 2.16553,8.7128 c 0.87105,-2.5317 0.75612,2.2977 0,0 z m 4.33097,0 c -1.08694,-2.5751 4.30376,3.6355 0,0 z m 2.64669,0.3165 1.61142,-0.3823 -1.61142,0.3823 z m 5.79131,-0.3043 4.02127,0.039 -4.02127,-0.039 z m 10.48008,0.1719 0.86913,0.1079 -0.86913,-0.1079 z m 66.9832,-0.593 c 3.34005,-9.5198 7.01805,6.994 0,0 z m 30.31405,0.4271 1.42771,0.3235 -1.42771,-0.3235 z m -96.08389,-1.906 c -12.16344,-8.2078 4.83444,-9.3157 0,0 z m -5.81507,-1.1618 c 3.39848,-4.3308 3.37245,5.7475 0,0 z m -13.1133,-0.4307 c 3.21735,-7.6069 6.52085,4.4614 0,0 z m 24.3017,-1.7475 c 1.06849,-2.565 1.06827,2.5651 0,0 z m -11.45568,-0.4065 c -2.02935,-4.4061 4.61829,2.4538 0,0 z m -44.87508,-0.8093 c -0.76631,-6.2018 5.00531,2.3221 0,0 z m 40.69108,-1.4405 c 2.26255,-3.5699 1.61915,4.3087 0,0 z m -31.95487,-0.738 c -0.63089,-3.2933 2.73449,1.018 0,0 z m 110.59109,-0.3091 c -1.67437,-4.1454 3.32979,1.4552 0,0 z m -66.2147,-0.1784 0.86921,0.1069 -0.86921,-0.1069 z m -10.01545,-1.0554 c 3.71477,-1.4273 -1.96946,-3.2575 0,0 z m 13.32649,-0.6971 c -5.59999,-5.3786 5.19688,-0.065 0,0 z m -5.62692,-1.3358 c 0.87149,-2.5315 0.75561,2.2977 0,0 z m 66.11307,0.052 c -8.04812,-10.7943 16.06894,4.2389 0,0 z m 12.13207,-1.1231 c -0.63079,-3.2932 2.73432,1.018 0,0 z m 9.81862,-1.5247 c 2.13725,-2.7275 0.96796,3.6994 0,0 z m -8.66202,-2.632 c 1.06826,-2.5651 1.0685,2.565 0,0 z m -84.57483,-1.3625 c -2.80264,-7.8738 6.07331,6.1692 0,0 z m 71.70217,0.9845 c -0.33022,-4.7842 5.55494,4.2533 0,0 z m -77.34169,-0.7546 c -0.84565,-6.8548 4.05648,1.4719 0,0 z m -13.93513,-0.9992 c -1.10793,-5.6368 3.12353,2.1041 0,0 z m 7.20364,-0.1514 c -0.29413,-3.1561 1.75083,2.0042 0,0 z m 24.28122,-0.04 c 1.06826,-2.5651 1.0685,2.565 0,0 z m 22.13626,0.1817 c -13.70846,-25.81829 21.91744,-11.1694 0,0 z m -28.15157,-1.3435 c 1.33858,-2.8938 1.29291,2.6782 0,0 z m 124.28639,-2.5631 c 5.19733,-4.583 2.01793,5.2142 0,0 z m -350.381904,-0.7296 c -3.761532,-6.2524 8.861532,-2.9853 0,0 z m -6.575687,-4.2584 c 1.068489,-2.565 1.068259,2.5651 0,0 z m -2.887338,-1.452 c 0.910585,-3.3063 0.911087,3.3058 0,0 z m 4.444753,-2.1282 c -2.929673,-8.2574 5.667286,2.7973 0,0 z m 160.475236,-0.4857 1.22524,-0.1853 -1.22524,0.1853 z m -164.318402,0.1962 c -3.423544,-3.1636 3.171636,-0.2264 0,0 z m 98.530342,-0.7771 c 1.29293,-2.6781 1.33858,2.8939 0,0 z m 65.44633,-3.5094 c -7.02171,-11.30157 8.46971,-3.9519 0,0 z m 95.76333,0.025 c 1.06857,-2.5652 1.06827,2.5653 0,0 z m -257.288609,-2.0375 c 0.436396,-6.45356 2.387433,7.2123 0,0 z m -2.923188,-0.3261 c -0.289181,-3.861 1.391406,2.9897 0,0 z m 170.077077,-1.4353 c -3.46544,-11.55622 6.19258,5.547 0,0 z m 194.80061,-2.0096 c 0.75611,-2.29778 0.87123,2.5318 0,0 z m -23.82052,-1.74323 c -18.54225,4.24653 -11.01076,-14.1229 0,0 z m -2.40607,-3.48511 c -0.75573,-2.29788 -0.87163,2.53151 0,0 z m -218.59546,3.15291 c -6.7362,-5.93016 5.18598,1.38943 0,0 z m 11.51395,0.0992 c -1.0957,-3.79555 2.84792,1.53063 0,0 z m -19.79455,-0.30793 c 0.83319,-12.37207 8.51153,3.88386 0,0 z m 13.69432,-0.62104 1.7547,-0.42638 -1.7547,0.42638 z M 19.619399,995.96627 c 0.902293,-4.78116 2.481051,3.4982 0,0 z M 342.8861,994.73022 c -1.11134,-3.77371 2.87164,1.46922 0,0 z m 8.13542,-0.41821 c 3.10565,-4.64425 1.3864,3.9187 0,0 z m -165.47419,-0.70238 c -1.53212,-5.76291 4.30786,1.78341 0,0 z m -165.753892,-0.5454 c -9.481818,-20.13861 16.606804,-4.62981 0,0 z m 368.699572,-3.62948 c 1.0415,-3.852 1.85455,3.05356 0,0 z M 19.284811,981.41169 c 0.87163,-2.53153 0.755736,2.29787 0,0 z m 208.631949,-2.8615 c -21.83774,-31.38123 72.04798,-5.47608 17.30413,-2.25268 -5.786,-0.2577 -12.05499,-0.88555 -17.30413,2.25268 z m 2.61283,-3.19378 c -3.60712,-0.10961 2.86686,3.79306 0,0 z m 34.17886,-6.72336 c -1.55282,-2.94229 -1.55295,2.94226 0,0 z m -4.86721,-2.94532 c -2.46355,-1.65402 0.94413,3.00912 0,0 z m -107.89586,7.9551 c -32.69245,-11.06899 24.28254,-17.33873 0,0 z m 154.46047,-4.12267 c 2.52779,-9.41335 8.04966,5.44003 0,0 z m 6.18426,0.27448 c 1.29291,-2.67812 1.33858,2.89395 0,0 z m -174.92444,-2.61371 c 0.89273,-4.70699 1.62243,2.6126 0,0 z m 168.42795,-3.22896 c 1.60526,-1.50175 0.42008,2.52258 0,0 z m -49.08474,-0.5466 c 1.06848,-2.56504 1.06825,2.56509 0,0 z m -108.88252,-4.41193 c -0.44333,-8.85069 7.96552,4.3977 0,0 z m -7.33281,-11.85193 c 0.87163,-2.5315 0.75572,2.29789 0,0 z m 229.77198,-2.07081 c -4.68899,-13.7547 9.32592,-2.4914 0,0 z m 2.8993,-2.02941 c -1.95002,-3.10864 -0.11499,4.48327 0,0 z m -106.83149,0.0345 c 1.06825,-2.56508 1.06849,2.56505 0,0 z m 1.4437,-1.74261 c -0.91243,-2.33288 3.19708,2.25701 0,0 z m 3.46077,-0.0432 c 1.37782,-2.94381 1.37761,2.94383 0,0 z m 1.65377,-2.7401 c 1.35005,-2.33888 1.86349,2.91768 0,0 z m -49.38705,-2.08581 1.88209,-0.29322 -1.88209,0.29322 z m 22.37681,-0.3581 c 0.87122,-2.53178 0.75612,2.29776 0,0 z m 24.3125,-1.06493 c -0.99077,-6.62848 9.43867,7.82057 0,0 z m 93.1396,-1.19267 c -0.29782,-4.39 3.38974,1.97324 0,0 z m -91.983,-2.00167 c -16.8218,-5.61386 12.14077,-14.91643 0,0 z m -47.60527,-1.54927 c 1.06827,-2.56528 1.06857,2.56525 0,0 z M 19.55638,928.96555 c 1.231161,-3.63777 0.292422,1.93251 0,0 z m 0.04915,-4.8638 c -3.219323,-2.09053 2.10961,-1.63238 0,0 z m 240.77185,-0.19366 c 1.33875,-2.89399 1.2926,2.67805 0,0 z m 2.6467,0 c 1.33888,-2.894 1.29273,2.67816 0,0 z m 68.09304,-2.86504 c 2.21046,-6.47936 3.67418,5.96245 0,0 z M 268.39777,906.6762 c -2.97919,-5.19284 4.01622,1.10173 0,0 z m -3.91353,-1.32322 c -0.49493,-5.3201 4.06105,2.83751 0,0 z m 6.96123,-0.2883 1.43942,-0.59099 -1.43942,0.59099 z m 5.87952,-5.56554 c 0.4604,-7.76359 5.18074,5.43743 0,0 z m -3.71401,-1.14854 c 0.87151,-2.53133 0.75562,2.2978 0,0 z m 4.42429,-3.2757 c -1.04268,-4.29265 2.90559,1.47441 0,0 z m -74.37177,-1.77929 c -33.35213,-9.76059 40.55676,-10.68166 3.71097,0.0422 l -3.71097,-0.0422 z m -0.66192,-2.0241 c -0.61831,-4.0108 -1.61409,2.7003 0,0 z m 18.63831,-2.58581 c 0.88501,-3.91815 -3.11788,2.03888 0,0 z m 3.60816,-4.82203 c 0.25829,-3.42341 1.80343,2.30548 0,0 z m -29.64471,-2.09888 c -4.71266,-13.75693 9.83274,-2.82647 0,0 z m 13.24614,-1.52316 c -4.0514,-9.1091 6.40686,-3.55991 0,0 z m 12.30154,-1.07215 c -1.52513,-7.5486 5.70978,1.41297 0,0 z m 89.51892,-1.73895 c 1.78439,-1.896 0.70644,2.60603 0,0 z m -113.8332,-13.12065 c -5.86648,-12.72386 9.8816,-6.50403 0,0 z m -11.92166,-2.67699 c -8.24146,-16.48074 13.45942,-3.15911 0,0 z m 36.00202,-1.61841 c 2.02684,-8.15749 2.9785,5.79411 0,0 z m -11.54935,-3.55288 c 2.79544,-15.39012 3.4871,8.19958 0,0 z m -12.6321,-11.88159 c -10.15131,-18.96423 16.27079,-4.61286 0,0 z m 12.51214,0.50614 c -10.49014,-17.75618 13.59127,-7.38094 0,0 z m -24.30214,-0.59408 c -11.1508,-13.45054 16.39111,-8.41947 0,0 z m 36.01901,-2.04838 c -5.29695,-14.36349 8.19921,-0.37522 0,0 z m 21.24354,-0.8215 c -2.12613,-4.51381 3.70922,1.93407 0,0 z m -1.77044,-1.90349 c -1.60804,-6.87867 6.39537,-0.23724 0,0 z m 49.29419,2.2e-4 c 1.92679,-7.006 3.28452,7.16581 0,0 z m 19.24892,0.6109 c -1.38402,-5.60593 3.81657,0.14146 0,0 z m -55.82186,-1.80692 c 1.0685,-2.56502 1.06823,2.5651 0,0 z m 36.3323,-1.7425 c 0.75561,-2.29781 0.87151,2.53132 0,0 z M 180.49438,819.32053 c 1.60515,-1.50164 0.42018,2.52238 0,0 z m 14.74391,-0.25616 c 1.35705,-3.16597 1.29074,4.84165 0,0 z m -6.56318,-0.29044 c 0.87164,-2.53151 0.75573,2.29788 0,0 z m 8.18084,-2.06727 c 1.80331,-2.30599 0.25852,3.42366 0,0 z m 132.0211,0.0108 c -0.18753,-4.2289 2.42576,3.87808 0,0 z M 549.111,729.90523 c 1.06826,-2.56508 1.06848,2.56505 0,0 z m 3.1328,-12.78823 c 1.78431,-1.89595 0.70644,2.60596 0,0 z m 155.67069,-12.51312 c 1.67598,-2.16189 -0.13385,3.15558 0,0 z m -7.45893,-0.25614 c 1.29273,-2.67816 1.33886,2.89401 0,0 z m -158.08169,-2.32339 c 1.06827,-2.56509 1.0685,2.56505 0,0 z m 12.16292,-0.61371 c -7.27552,-7.0247 6.65736,-0.34274 0,0 z m 140.38472,-4.03311 c 1.06827,-2.5653 1.06859,2.56524 0,0 z m -1.68425,-1.1617 c 1.1085,-3.00247 1.0251,2.51173 0,0 z m -139.31403,-0.87136 c 0.91993,-3.47024 0.58074,3.11997 0,0 z M 695.88397,693.602 c 1.16211,-3.16171 1.1621,3.16173 0,0 z m 7.21829,-0.35259 c 3.93332,-5.34578 2.69605,6.38569 0,0 z m -11.54926,0.0625 c 1.29286,-2.67814 1.33856,2.89403 0,0 z m -135.94552,-7.55096 c 0.75579,-2.29777 0.87149,2.53138 0,0 z m -533.675966,-2.3234 c 1.552824,-2.94227 1.552939,2.94228 0,0 z m 4.688965,-0.14522 c 3.774259,-5.22184 3.951342,4.61566 0,0 z m 7.827659,-1.02597 c 1.784381,-1.89607 0.706375,2.60604 0,0 z m 518.993912,-1.15221 c 1.06826,-2.5653 1.06858,2.56523 0,0 z m -39.70091,-5.22773 c -16.74442,-30.43658 49.93519,-28.48025 14.37286,-5.70726 -4.79588,1.87105 -9.78285,3.3311 -14.37286,5.70726 z m 5.05285,-4.32205 c -0.14337,-4.49755 -1.91184,3.11125 0,0 z m -3.36861,-1.48646 c -1.06856,-2.56525 -1.06825,2.56528 0,0 z m 186.71444,5.22772 c 1.06825,-2.56509 1.06849,2.56504 0,0 z m -190.08294,-0.90557 c 1.67589,-2.16165 -0.13469,3.15548 0,0 z m 190.56421,-4.90295 c 1.06833,-2.56523 1.06851,2.56518 0,0 z m 0.50326,-8.08218 c -0.58915,-4.10512 2.03322,3.96295 0,0 z M 555.36694,651.8428 c 1.69391,-3.61842 2.15067,1.77153 0,0 z m -42.694,-3.24579 c -9.78393,-29.98055 49.56195,-24.15367 14.5453,-3.07152 -4.55534,1.52354 -9.58862,6.78924 -14.5453,3.07152 z m 261.86504,-3.54677 c -1.26339,-4.27214 2.44545,1.80492 0,0 z m -241.30729,-1.69195 c 2.02369,-3.23091 2.02368,3.23093 0,0 z m 225.2262,-4.04327 c -0.52006,-3.59861 3.3632,3.85185 0,0 z m 16.58819,-0.0227 c 0.75577,-2.29791 0.87141,2.53148 0,0 z m -24.01118,-2.66624 c -0.6389,-5.13293 2.82912,3.62749 0,0 z m 17.75533,-0.43747 c -17.00451,-4.11581 -67.84182,-1.28629 -51.65244,-29.66107 16.50342,7.54892 66.14951,-3.48548 51.65244,29.66107 z m -15.15851,-0.38139 c 1.06843,-2.56528 1.06842,2.56528 0,0 z m -15.61921,-1.12158 c -0.29505,-3.1558 1.75066,2.0039 0,0 z m -24.32234,-4.39651 c 1.60257,-3.84767 1.60259,3.84763 0,0 z m -206.13042,-1.35405 c -1.55862,-6.82144 4.13008,5.72461 0,0 z m -3.457,-0.12724 c -0.8929,-3.3656 2.59299,1.65002 0,0 z m 8.91363,-1.56818 c -15.96991,-28.83342 50.19813,-35.72228 15.21876,-8.236 -4.97893,2.93002 -11.04006,3.97934 -15.21876,8.236 z M 775.2857,624.1902 c 1.06835,-2.56501 1.06835,2.565 0,0 z m -149.39105,-3.41838 c -1.60636,-5.80764 4.00976,4.90287 0,0 z m 4.34893,-2.88025 c -0.63133,-3.29279 2.73457,1.01783 0,0 z m -120.59286,-0.6716 c 1.06834,-2.56503 1.06833,2.56504 0,0 z m 80.84546,-1.45213 c 1.08967,-3.43343 1.08967,3.43344 0,0 z m -82.77036,-4.35638 c 1.55288,-2.94221 1.55289,2.9422 0,0 z m 259.2388,-2.1476 c -16.41726,-7.77917 -66.04229,-2.12544 -51.28154,-31.55363 15.29785,7.42865 66.94731,1.96828 51.28154,31.55363 z m -14.55754,-17.56125 c 0.29506,-3.15582 -1.75065,2.00389 0,0 z m 6.84582,-1.8916 -0.0885,1.04937 0.0885,-1.04937 z m -129.51026,17.00601 c -1.89085,-7.25027 5.42521,2.91124 0,0 z m 145.54306,-0.39123 c 1.87869,-3.03855 0.98916,3.88476 0,0 z m -274.0165,-1.32577 c -2.4016,-2.41142 2.05996,-0.17927 0,0 z m 11.94544,-2.65997 c -16.27903,-25.71513 46.4048,-40.13416 15.78224,-9.86462 -5.06784,3.60566 -11.04678,5.7612 -15.78224,9.86462 z m -14.15082,-1.65078 c -2.27143,-15.61868 5.7909,0.73548 0,0 z m 274.05637,0.16683 c 1.2928,-2.67811 1.3387,2.89402 0,0 z m -265.39437,-3.1947 c 2.14825,-9.32591 2.10064,6.79297 0,0 z m 119.34331,-2.93853 c 1.80339,-2.30592 0.25849,3.42365 0,0 z m -29.87553,-3.77085 c -3.87664,-9.49945 6.79075,2.42558 0,0 z m -107.39294,-3.15146 c 2.00109,-3.89141 -0.38137,4.08512 0,0 z M 751.8998,584.4009 c 0.19397,-7.23124 1.40436,4.48783 0,0 z m -259.26213,-2.31061 c -9.13489,0.90638 4.89788,-6.15587 0,0 z m 274.75459,-0.44751 c -16.944,-7.19073 -63.60355,-1.61663 -51.26449,-31.58635 14.24523,10.84984 66.48449,0.2696 51.26449,31.58635 z M 738.2677,558.39419 c -1.76539,-1.90399 -0.31063,2.39941 0,0 z M 500.36406,581.4212 c -13.87023,-10.95849 11.56869,-22.95178 -0.28804,-9.38909 2.72527,2.1551 3.86737,7.27599 0.28804,9.38909 z m -1.144,-12.79414 c -0.24658,-6.32195 -5.28558,3.64467 0,0 z m -4.18392,10.11146 c -2.10888,-6.82032 2.59298,3.89845 0,0 z m 17.8255,0.29043 c -15.84299,-27.62468 49.16888,-43.18329 14.97482,-12.30858 -4.84037,4.27914 -9.6656,8.60719 -14.97482,12.30858 z m -9.14596,-2.85586 c -0.88274,-6.85893 5.69836,3.16472 0,0 z m 181.10021,-0.77446 c 1.06841,-2.56529 1.06842,2.56528 0,0 z m -177.09007,-1.45144 c -9.89969,-2.27385 7.73256,-6.89405 0,0 z m -7.2183,-12.52329 c 0.31102,-7.32948 3.97893,2.9323 0,0 z m 5.29341,-2.28912 c 0.87127,-2.53153 0.756,2.2977 0,0 z m -3.84978,-2.5206 c -17.17194,-0.18784 0.70995,-7.21732 0,0 z m 264.99158,-1.981 c -15.63744,-8.13482 -65.79838,-4.06898 -50.40162,-32.13109 15.5399,8.13758 63.28877,2.55477 50.40162,32.13109 z m -35.92954,-11.14713 c -0.25848,-3.42363 -1.8034,2.30588 0,0 z m 7.94021,-1.19599 c -1.02489,-2.51176 -1.10863,3.00232 0,0 z m 27.91093,-2.32342 c -0.75583,-2.29771 -0.87127,2.53151 0,0 z m -28.15156,-1.12741 c -0.25842,-3.42359 -1.80339,2.30587 0,0 z m 20.72864,-0.77486 c -1.76533,-1.90375 -0.31033,2.39928 0,0 z m -13.51026,-1.58282 c 0.48258,-8.55486 -2.99962,5.921 0,0 z m -29.46495,-1.05279 c -1.85455,-3.05364 -1.0415,3.85206 0,0 z m -1.01464,-9.54777 -0.0232,1.41721 0.0232,-1.41721 z m -203.06654,27.88088 c -4.13159,-16.46834 2.83743,-67.50841 25.36408,-54.14072 -3.98426,15.48382 -24.64901,29.60298 -1.09987,19.14003 13.77409,10.60858 -17.49925,29.1246 -24.26421,35.00069 z m 17.08411,-30.76577 c -2.06855,0.19011 2.86059,2.13409 0,0 z m -21.96633,29.19184 c -8.36397,-12.03184 7.52539,-4.24401 0,0 z m 20.07353,-5.66827 c -2.07823,-3.472 4.57028,1.05654 0,0 z m 92.44415,-5.53652 c -14.80253,-9.1988 -67.37952,-5.13435 -52.14135,-28.41926 16.8539,-0.69316 75.08336,2.62191 52.14135,28.41926 z m -21.82474,-11.50611 c -1.95003,-3.1085 -0.11497,4.48316 0,0 z m -31.27944,-8.13193 c -2.53832,-6.44501 -0.33265,7.51359 0,0 z m 30.84689,-0.37946 c -2.75354,0.11416 4.25975,5.38853 0,0 z m -7.53884,-2.55137 c -1.97577,-2.57832 -0.5819,3.37665 0,0 z m -16.08976,0.0609 c -1.06842,-2.56529 -1.06843,2.56527 0,0 z m -7.21829,-1.41529 c 0.28077,-6.93938 -2.85652,3.28669 0,0 z m 7.95315,-0.35272 c 2.59024,-7.24495 -4.92592,1.23222 0,0 z m 7.92716,-0.55539 c -0.87128,-2.5315 -0.75582,2.29771 0,0 z m -77.23623,19.1681 c 0.75583,-2.29772 0.87129,2.5315 0,0 z m 0.92464,-2.58893 c -1.8652,-7.61215 3.73203,4.84235 0,0 z m 261.20526,-3.1901 c -14.24178,-12.09947 -64.68613,-7.54887 -50.96074,-34.82024 15.64935,9.85513 62.30076,4.8225 50.96074,34.82024 z M 745.71027,517.2748 c 0.0716,-3.27665 -1.95437,3.2579 0,0 z m -0.50102,-5.09222 c -1.73943,-2.90119 -0.72167,3.75199 0,0 z m -21.89563,-0.0967 c -1.06841,-2.56529 -1.06842,2.56528 0,0 z m 22.12894,-3.04948 c 2.03278,-5.85207 -3.21095,1.02619 0,0 z m -22.00745,-4.23418 c -1.51539,-4.41368 -0.71541,5.98251 0,0 z m -7.09915,-5.10785 c -1.57673,-7.65507 -0.92257,8.87773 0,0 z M 508.20709,528.3497 c 0.87128,-2.53151 0.75582,2.29772 0,0 z m 131.15375,-6.34925 c -0.028,-3.39164 1.93666,2.43018 0,0 z m 43.53015,-3.52524 c 1.06843,-2.56528 1.06843,2.56528 0,0 z m -153.99136,-0.58085 c 1.06835,-2.56503 1.06835,2.56503 0,0 z m 92.876,-1.45213 c 1.16203,-3.16158 1.16203,3.1616 0,0 z m -4.81224,-1.90774 c -16.25315,-12.89542 -59.33205,0.81927 -53.2953,-31.81751 12.9825,10.4862 83.62382,1.60832 53.2953,31.81751 z m 3.84979,-10.90528 c -1.67609,-2.16151 0.13473,3.15552 0,0 z m -8.12202,-2.39078 c -2.24964,-1.315 3.0596,4.87331 0,0 z m -46.25613,-8.32068 c -1.06842,-2.56529 -1.06843,2.56528 0,0 z m 23.42738,-1.27062 -0.0885,1.04936 0.0885,-1.04936 z m -81.41209,18.12042 c -3.77546,-10.72632 5.40876,0.40795 0,0 z m 4.08774,-5.77935 c -15.73141,-22.17784 43.39678,-51.04322 17.11414,-16.41866 -5.20053,5.88901 -9.4289,13.37702 -17.11414,16.41866 z m 154.27444,-2.85546 c -3.68857,-7.01049 4.97865,0.73569 0,0 z m 6.9732,-4.48786 c 1.3789,-0.87302 -0.90299,2.87313 0,0 z m -22.46994,-3.83 c 1.67262,-8.09984 2.67685,6.67719 0,0 z m 129.25808,0.69578 c 3.29586,-7.61357 4.92975,3.91351 0,0 z m -2.90835,-1.54788 c -3.76009,-7.53653 5.08688,5.04211 0,0 z m 7.10193,-3.41967 c 1.85274,-4.8771 4.97382,4.72802 0,0 z m -161.0669,-0.11618 c -14.90595,-9.83197 -61.25794,-4.34533 -55.65782,-23.11742 18.71325,-0.39654 63.11842,-9.97488 55.65782,23.11742 z m -25.50478,-7.9975 c -1.60268,-3.84793 -1.60268,3.8479 0,0 z m 14.91788,-4.93725 c -1.06843,-2.56528 -1.06842,2.56529 0,0 z m 7.91284,-2.46861 c -0.82903,-6.90814 -1.49691,5.27641 0,0 z m -22.97133,-5.22766 c 4.81805,-6.49176 -5.61189,-1.4799 0,0 z m 180.37911,20.51516 c 1.34883,-4.19058 3.05926,4.59196 0,0 z m 10.40169,-1.7827 c 0.41089,-2.68574 0.4109,2.68573 0,0 z m -20.49427,-0.51503 c -1.51814,-9.28674 6.7689,0.78042 0,0 z m 8.95949,-0.49479 c 0.43287,-6.02618 2.72413,2.88616 0,0 z m 4.83655,0.3031 c -11.85345,-10.00554 9.93598,-9.48895 0,0 z m -8.69285,-2.33101 c -5.79606,-8.69563 5.55545,-0.56618 0,0 z m -18.85167,0.33202 c -21.18646,-3.76507 17.54418,-5.07541 0,0 z m -242.75505,-3.96401 c -14.78984,-26.83719 37.93628,-11.6796 0,0 z m 155.98222,2.22588 c -8.09397,1.13333 3.4115,-4.61726 0,0 z m 119.23192,-2.21412 c -15.93801,-9.782 4.16917,-13.84142 0,0 z m -3.85326,-10.13436 c 2.31619,-7.63805 -5.15837,3.87031 0,0 z m -20.11787,10.11249 c 0.78273,-3.24082 1.16281,3.86349 0,0 z m 4.16854,-0.86317 c 2.75501,-4.83017 -0.61764,6.04839 0,0 z m -28.69728,0.76636 c -1.51767,-4.28037 3.58494,1.72407 0,0 z m 14.15378,-1.69414 c 1.3789,-0.87302 -0.90299,2.87313 0,0 z m 23.8628,0.53243 c -2.43978,-2.27476 2.35592,-0.0622 0,0 z m -257.77499,-1.0306 c 1.11334,-7.39378 3.24876,5.9337 0,0 z m 132.81745,-0.32472 c 0.87128,-2.53152 0.75583,2.29772 0,0 z m 107.49549,-0.65791 c -3.18335,-11.28955 8.3613,-1.56897 0,0 z m 2.22336,-1.34079 c -0.42009,-2.52241 -1.60516,1.50162 0,0 z m 3.26581,1.39064 c 1.16449,-5.20088 3.35504,5.97143 0,0 z m -22.72434,0.0876 c -1.20586,-8.00022 5.47435,2.68607 0,0 z m 8.39035,-0.64136 c 0.87129,-2.5315 0.75582,2.29772 0,0 z m -3.13708,-0.59875 c -1.09834,-5.17903 4.46364,0.81057 0,0 z m 21.53592,-0.56159 c -15.23182,-3.95917 5.78579,-3.73831 0,0 z m 7.90803,0.19225 c -2.39008,-7.45776 6.34483,0.93628 0,0 z m -30.63783,-3.0293 c 5.13174,-15.29133 46.72952,0.63473 0,0 z m -7.57924,-0.45325 c -3.63813,-10.71833 7.87053,1.4881 0,0 z m 50.04709,0 c -6.63195,-3.23179 3.53648,-1.57919 0,0 z m -282.99424,-1.09812 c 1.21438,-4.06419 1.62134,3.72925 0,0 z m 269.16396,-0.25028 c -7.58549,-8.70118 5.08298,-3.87273 0,0 z m -266.76039,-1.22775 c 2.88185,1.47234 -0.0214,-2.61952 0,0 z m 226.50902,-2.78096 c -4.25949,-13.9121 6.14274,6.91457 0,0 z m 8.96361,-0.32033 c -0.49505,-6.26137 5.41362,1.43943 0,0 z m 45.2186,0.21496 c -0.81417,-3.06787 1.65687,2.1775 0,0 z m -8.8828,-0.49471 c 1.3935,-6.58927 7.256,3.50987 0,0 z m -276.44197,-1.16907 c 0.35476,-3.79585 2.32919,2.73229 0,0 z m 3.34805,-0.0402 c 1.06842,-2.56528 1.06841,2.56529 0,0 z m 270.20659,-0.32471 c 1.67609,-2.16151 -0.13473,3.15552 0,0 z m 9.14318,0.35258 c -2.02953,-4.48689 9.46799,4.32491 0,0 z m -228.0996,-0.643 c 1.60518,-1.50164 0.42008,2.52245 0,0 z m 47.15985,0.38685 1.14928,-0.38964 -1.14928,0.38964 z m 18.04585,-0.35256 c 0.75582,-2.29773 0.87127,2.5315 0,0 z m 79.55218,0.18406 0.86921,0.10725 -0.86921,-0.10725 z m 17.21024,-0.25556 1.89573,0.26994 -1.89573,-0.26994 z m 16.8062,0.0715 c 0.87128,-2.53151 0.75581,2.29772 0,0 z m 1.97441,0.0967 c 0.95345,-2.18956 0.95341,2.18951 0,0 z m 1.63474,-0.0967 c 1.33871,-2.89401 1.2928,2.67811 0,0 z m 25.98603,0 c 0.87129,-2.53151 0.75583,2.29772 0,0 z m 6.73713,0 c 0.87128,-2.53151 0.75582,2.29772 0,0 z"
       id="path3571"
       inkscape:connector-curvature="0"
       inkscape:export-filename="pyohio.png"
       inkscape:export-xdpi="90"
       inkscape:export-ydpi="90" />
    <path
       inkscape:connector-curvature="0"
       id="rect4739"
       d="m 1.62527,746.8659 797.03079,0 0,299.7512 -797.03079,0 z"
       style="fill:url(#linearGradient4072);fill-opacity:1;fill-rule:evenodd;stroke:none"
       sodipodi:nodetypes="ccccc"
       inkscape:export-filename="pyohio.png"
       inkscape:export-xdpi="90"
       inkscape:export-ydpi="90" />
    <flowRoot
       xml:space="preserve"
       id="flowRoot3758"
       style="font-size:40px;font-style:normal;font-variant:normal;font-weight:normal;font-stretch:normal;text-align:end;line-height:125%;letter-spacing:0px;word-spacing:0px;text-anchor:end;fill:#000000;fill-opacity:1;stroke:none;font-family:Purisa;-inkscape-font-specification:Purisa"
       transform="translate(-127.363,71.18068)"
       inkscape:export-filename="pyohio.png"
       inkscape:export-xdpi="90"
       inkscape:export-ydpi="90"><flowRegion
         id="flowRegion3760"><rect
           id="rect3762"
           width="411.88046"
           height="270.85617"
           x="1.1192404"
           y="342.28717" /></flowRegion><flowPara
         id="flowPara3764" /></flowRoot>    <flowRoot
       transform="matrix(1.4110267,0,0,1.4110267,270.62824,-0.9009195)"
       style="font-size:40px;font-style:normal;font-variant:normal;font-weight:normal;font-stretch:normal;text-align:end;line-height:125%;letter-spacing:0px;word-spacing:0px;text-anchor:end;fill:#ffffff;fill-opacity:1;stroke:none;font-family:Purisa;-inkscape-font-specification:Purisa"
       id="flowRoot3782-4"
       xml:space="preserve"
       inkscape:export-filename="pyohio.png"
       inkscape:export-xdpi="90"
       inkscape:export-ydpi="90"><flowRegion
         id="flowRegion3784-4"><rect
           style="text-align:end;text-anchor:end;fill:#ffffff;fill-opacity:1"
           y="325.49857"
           x="-160.05138"
           height="76.108337"
           width="519.32751"
           id="rect3786-5" /></flowRegion><flowPara
         style="font-size:56px;font-style:normal;font-variant:normal;font-weight:normal;font-stretch:normal;text-align:end;text-anchor:end;fill:#ffffff;fill-opacity:1;font-family:League Gothic;-inkscape-font-specification:League Gothic"
         id="authors-9">PyOhio July 2012</flowPara></flowRoot>    <flowRoot
       xml:space="preserve"
       id="titlebox"
       style="font-size:40px;font-style:normal;font-variant:normal;font-weight:normal;font-stretch:normal;text-align:left;line-height:125%;letter-spacing:0px;word-spacing:0px;text-anchor:end;fill:#ffffff;fill-opacity:1;stroke:none;font-family:Liberation Mono;-inkscape-font-specification:Liberation Mono"
       transform="matrix(1,0,0,1.1970692,-44.795762,597.89804)"
       inkscape:export-filename="pyohio.png"
       inkscape:export-xdpi="90"
       inkscape:export-ydpi="90"><flowRegion
         id="flowRegion2776"><rect
           id="rect2778"
           width="633"
           height="194.42589"
           x="68.642532"
           y="121.71946"
           style="font-size:32px;font-style:normal;font-variant:normal;font-weight:normal;font-stretch:normal;text-align:center;line-height:100%;writing-mode:lr-tb;text-anchor:middle;fill:#ffffff;font-family:Liberation Mono;-inkscape-font-specification:Liberation Mono" /></flowRegion><flowPara
         id="title"
         style="font-style:normal;font-variant:normal;font-weight:normal;font-stretch:normal;font-family:Liberation Sans;-inkscape-font-specification:Liberation Sans;fill:#ffffff">Procedures, Objects, Reusability: &quot;httplib&quot;, &quot;urllib2&quot;, and Their Discontents</flowPara></flowRoot>    <flowRoot
       transform="matrix(1,0,0,1.1970692,193.3853,391.7654)"
       style="font-size:40px;font-style:normal;font-variant:normal;font-weight:normal;font-stretch:normal;text-align:end;line-height:125%;letter-spacing:0px;word-spacing:0px;text-anchor:end;fill:#ffffff;fill-opacity:1;stroke:none;font-family:Liberation Mono;-inkscape-font-specification:Liberation Mono"
       id="presenterbox"
       xml:space="preserve"
       inkscape:export-filename="pyohio.png"
       inkscape:export-xdpi="90"
       inkscape:export-ydpi="90"><flowRegion
         id="flowRegion2830"><rect
           style="font-size:32px;font-style:normal;font-variant:normal;font-weight:normal;font-stretch:normal;text-align:center;line-height:100%;writing-mode:lr-tb;text-anchor:middle;fill:#ffffff;font-family:Liberation Mono;-inkscape-font-specification:Liberation Mono"
           y="191.71947"
           x="68.642532"
           height="100.88434"
           width="510.7511"
           id="rect2832" /></flowRegion><flowPara
         id="authors"
         style="font-size:36.55950928px;font-style:normal;font-variant:normal;font-weight:normal;font-stretch:normal;fill:#ffffff;font-family:Liberation Sans;-inkscape-font-specification:Liberation Sans">Carl &quot;Speedy&quot; Karsten and Ryan &quot;Aussie&quot; Verner</flowPara></flowRoot>    <g
       id="nextdayvideo"
       transform="translate(-111.99999,-12.00002)">
      <path
         id="nextday"
         style="font-size:145.81277466px;font-style:normal;font-variant:normal;font-weight:normal;font-stretch:normal;line-height:125%;letter-spacing:0px;word-spacing:0px;fill:url(#linearGradient3728);fill-opacity:1;stroke:none;font-family:Helvetica;-inkscape-font-specification:Helvetica"
         d="m 522.51823,1007.2461 9.6088,19.063 9.85459,-19.063 5.78332,0 -13.34286,23.4172 0,16.6465 -5.04765,0 0,-16.6465 -12.7522,-23.4172 m -9.16257,23.6042 -5.96798,-18.8141 -5.99081,18.8141 m 9.31884,-23.6336 13.55428,40.2013 -5.62745,0 -4.02296,-12.5068 -14.31289,0 -3.73013,12.5068 -5.79165,0 13.50964,-40.2013 m -25.82115,30.9698 c 4.65734,-5.2495 4.2863,-17.2198 0.42587,-21.8198 -4.82581,-5.5021 -12.15951,-6.2521 -18.80189,-4.3043 l 0.10825,31.078 c -0.49236,1.0068 15.38228,0.446 18.26777,-4.9539 z m -23.85197,-30.5369 c 24.94495,-2.5965 31.95472,2.9335 32.88773,18.6258 0.36929,11.4131 -4.96846,19.0327 -16.92888,21.1426 -5.31962,0.5744 -10.63923,0.2663 -15.95885,0 l 0,-39.7684 m -17.9516,0 0,4.7375 -12.28646,0 0,35.0309 -5.01386,0 0,-35.0309 -12.28646,0 0,-4.7375 29.58678,0 m -57.63942,39.7684 -5.95706,0 13.05592,-20.3851 -12.23684,-19.3833 6.18046,0 9.30792,15.2143 9.23346,-15.2143 5.88261,0 -12.23681,19.3833 12.83252,20.3851 -6.1308,0 -9.82918,-16.3514 -10.1022,16.3514 m -32.23145,-39.7684 22.2144,0 0,4.8729 -17.3991,0 0,12.074 15.76091,0 0,4.6022 -15.76091,0 0,13.4817 17.77142,0 0,4.7376 -22.58672,0 0,-39.7684 m 12.7497,0 0,0 m -50.98737,0 5.83297,0 18.41728,32.2153 0,-32.2153 4.69119,0 0,39.7684 -5.53511,0 -18.69031,-32.1884 0,32.1884 -4.71602,0 0,-39.7684 m 14.14805,0 0,0"
         inkscape:connector-curvature="0" />
      <g
         id="video">
        <path
           inkscape:connector-curvature="0"
           id="osquare"
           d="m 685.8649,1006.3622 28.93959,0 c 3.61773,0 6.5302,2.9125 6.5302,6.5302 l 0,28.9396 c 0,3.6177 -2.91247,6.5302 -6.5302,6.5302 l -28.93959,0 c -3.61773,0 -6.5302,-2.9125 -6.5302,-6.5302 l 0,-28.9396 c 0,-3.6177 2.91247,-6.5302 6.5302,-6.5302 z"
           style="fill:url(#radialGradient3730);fill-opacity:1;fill-rule:evenodd;stroke:none" />
        <path
           inkscape:connector-curvature="0"
           id="vide"
           style="font-size:249.46218872px;font-style:normal;font-variant:normal;font-weight:bold;font-stretch:normal;text-align:start;line-height:125%;letter-spacing:0px;word-spacing:0px;writing-mode:lr-tb;text-anchor:start;fill:url(#linearGradient3732);fill-opacity:1;stroke:#ff6600;stroke-width:1.28500414;font-family:Quicksand;-inkscape-font-specification:Quicksand Bold"
           d="m 651.64489,1047.6539 c 0,0 0.0579,-0.058 0.0579,-0.058 0,0 0,0.058 0.11575,0.058 l 18.75235,0 c 1.67845,0 3.18327,-1.4469 3.18327,-3.1833 0,-1.7942 -1.50482,-3.2411 -3.18327,-3.2411 l -15.68483,0 0,-10.6495 13.48548,0 c 1.73633,0 3.18327,-1.4469 3.18327,-3.2411 0,-1.6785 -1.44694,-3.1833 -3.18327,-3.1833 l -13.48548,0 0,-10.5916 15.68483,0 c 1.67845,0 3.18327,-1.447 3.18327,-3.2412 0,-1.7942 -1.50482,-3.1832 -3.18327,-3.1832 l -18.75235,0 c -0.11575,0 -0.11575,0 -0.11575,0 0,0 -0.0579,0 -0.0579,0 -1.7942,0 -3.18327,1.389 -3.18327,3.1832 l 0,34.1478 c 0,1.7364 1.38907,3.1833 3.18327,3.1833 z m -34.20454,0 c 0,0 0,0 0,0 0,0 0,0 0,0 l 6.82956,0 c 11.17038,0 20.19929,-9.0868 20.19929,-20.315 0,-11.1125 -9.02891,-20.1993 -20.19929,-20.1993 l -6.82956,0 c 0,0 0,0 0,0 0,0 0,0 0,0 -1.7942,0 -3.18326,1.389 -3.18326,3.1832 l 0,34.1478 c 0,1.7364 1.38906,3.1833 3.18326,3.1833 z m 3.24115,-34.0899 3.58841,0 c 7.63985,0 13.77488,6.1929 13.77488,13.7749 0,7.6977 -6.13503,13.8327 -13.77488,13.8906 l -3.58841,0 0,-27.6655 z m -18.22363,30.9066 0,0 c 0,1.7942 1.38906,3.1833 3.18327,3.1833 l 0,0 c 1.73633,0 3.24114,-1.3891 3.24114,-3.1833 l 0,-34.1478 0,0 c 0,-1.7942 -1.50481,-3.1832 -3.24114,-3.1832 l 0,0 c -1.79421,0 -3.18327,1.389 -3.18327,3.1832 l 0,34.1478 z m -23.804,2.6045 c 0.17363,0.1158 0.40514,0.2894 0.5209,0.3473 0.0579,0 0.0579,0 0.0579,0 0,0 0.0579,0 0.0579,0.058 0.11575,0 0.34727,0.058 0.46302,0.1157 0.0579,0 0.11576,0 0.11576,0 0.17363,0.058 0.40514,0.058 0.57877,0.058 0.17364,0 0.34727,0 0.57878,-0.058 0.0579,0 0.11575,0 0.11575,0 0.17364,-0.058 0.28939,-0.1157 0.46303,-0.1157 0.0579,-0.058 0.0579,-0.058 0.11575,-0.058 0,0 0,0 0,0 0.17363,-0.058 0.34726,-0.2315 0.46302,-0.2894 0.11576,-0.058 0.11576,-0.058 0.11576,-0.058 0.11575,-0.1157 0.23151,-0.1736 0.34726,-0.2894 0.0579,-0.058 0.0579,-0.058 0.11576,-0.1736 0.0579,-0.1157 0.23151,-0.2315 0.28938,-0.3473 0.0579,0 0.0579,0 0.0579,-0.058 0.11576,-0.1158 0.17364,-0.3473 0.23151,-0.463 l 14.29577,-33.8006 c 0.63666,-1.5627 -0.11575,-3.4726 -1.73632,-4.1093 -1.5627,-0.6945 -3.47266,0.058 -4.16719,1.6785 l -11.28614,26.7973 -11.28613,-26.7973 c -0.69453,-1.6206 -2.54662,-2.373 -4.10931,-1.6785 -1.67845,0.6367 -2.43086,2.5466 -1.73633,4.1093 l 14.18001,33.8006 c 0.11576,0.1157 0.23151,0.3472 0.28939,0.463 0,0.058 0.0579,0.058 0.0579,0.058 0.0579,0.1158 0.17363,0.2316 0.28939,0.3473 0,0.1158 0.0579,0.1158 0.0579,0.1736 0.17363,0.1158 0.28938,0.1737 0.40514,0.2894 0.0579,0 0.0579,0 0.0579,0 z" />
        <path
           inkscape:connector-curvature="0"
           style="fill:#ffffff;stroke:#ffffff;stroke-width:1.95138454;stroke-linecap:round;stroke-linejoin:round;stroke-miterlimit:4;stroke-opacity:1;stroke-dashoffset:0"
           inkscape:transform-center-x="-3.965261"
           inkscape:transform-center-y="-1.5074213e-05"
           d="m 703.92619,1028.2478 -5.52,4.8683 0,-9.7365 z"
           id="whitetriangle" />
        <path
           inkscape:connector-curvature="0"
           style="fill:#2f2f36;fill-opacity:1;stroke:#2f2f36;stroke-width:1.91584873;stroke-linecap:round;stroke-linejoin:round;stroke-miterlimit:4;stroke-opacity:1;stroke-dashoffset:0"
           inkscape:transform-center-x="-3.965261"
           inkscape:transform-center-y="-1.5074213e-05"
           d="m 703.87594,1028.7119 -5.41948,4.7795 0,-9.5591 z"
           id="greytriangle"
           inkscape:label="#greytriangle" />
        <path
           inkscape:connector-curvature="0"
           style="font-size:xx-small;font-style:normal;font-variant:normal;font-weight:normal;font-stretch:normal;text-indent:0;text-align:start;text-decoration:none;line-height:normal;letter-spacing:normal;word-spacing:normal;text-transform:none;direction:ltr;block-progression:tb;writing-mode:lr-tb;text-anchor:start;baseline-shift:baseline;color:#000000;fill:#ffffff;fill-opacity:1;stroke:none;stroke-width:26.75562668;marker:none;visibility:visible;display:inline;overflow:visible;enable-background:accumulate;font-family:Sans;-inkscape-font-specification:Sans"
           d="m 700.56317,1012.0041 c -8.08934,-0.1711 -14.76739,6.1919 -14.92837,14.7906 -0.16098,8.5988 5.99075,15.7578 14.08008,15.929 l 0.029,-4.8868 c -5.53589,-0.1171 -9.49205,-5.0562 -9.38189,-10.9407 0.11017,-5.8845 4.63628,-10.1805 10.17217,-10.0634 5.5359,0.1171 9.88358,4.5994 9.77341,10.484 -0.0518,2.7668 -1.11997,5.3961 -2.97263,7.3372 l -0.84103,-0.812 c -0.0995,-0.098 -0.24536,-0.148 -0.38427,-0.1305 -0.22302,0.028 -0.40776,0.2393 -0.40601,0.464 l 0,4.952 c 2e-5,0.243 0.22106,0.464 0.46402,0.464 l 5.12596,0 c 0.18408,0 0.36531,-0.1196 0.43502,-0.29 0.0697,-0.1704 0.0235,-0.3795 -0.10876,-0.5075 l -0.78303,-0.7613 c 2.61758,-2.8397 4.12333,-6.6297 4.19793,-10.6144 0.16098,-8.5988 -6.38227,-15.2431 -14.4716,-15.4142 z"
           id="circlearrow" />
      </g>
    </g>
    <g
       id="g841"
       transform="matrix(1.25,0,0,-1.25,201.73013,487.85143)">
      <path
         inkscape:connector-curvature="0"
         d="m 0,0 0,-12.116 -12.117,0 0,-12.116 -12.116,0 -12.117,0 -12.116,0 -12.117,0 -12.116,0 0,12.116 -12.116,0 -12.117,0 -12.117,0 -12.116,0 -12.116,0 0,-12.116 0,-12.117 0,-12.117 0,-12.116 0,-12.116 0,-12.116 0,-12.118 0,-12.116 0,-12.116 0,-12.117 12.116,0 0,-12.116 12.116,0 12.117,0 0,-12.117 12.117,0 12.116,0 12.116,0 0,-12.116 12.117,0 0,12.116 12.116,0 0,12.117 12.117,0 0,12.116 12.116,0 0,12.117 12.117,0 0,12.116 12.116,0 0,12.116 0,12.118 0,12.116 0,12.116 0,12.116 0,12.117 0,12.117 0,12.116 L 12.116,0 0,0 z"
         style="fill:none;stroke:#ffffff;stroke-width:1.60000002;stroke-linecap:butt;stroke-linejoin:miter;stroke-miterlimit:10;stroke-opacity:1;stroke-dasharray:none"
         id="path843" />
    </g>
    <g
       id="g845"
       transform="matrix(1.25,0,0,-1.25,80.56562,578.72431)">
      <path
         inkscape:connector-curvature="0"
         d="m 0,0 -12.117,0 0,12.116 0,12.116 0,12.118 12.117,0 12.116,0 12.116,0 0,12.116 -12.116,0 -12.116,0 -12.117,0 -12.116,0 0,-12.116 0,-12.118 0,-12.116 0,-12.116 0,-12.116 0,-12.117 0,-12.117 0,-12.116 0,-12.117 12.116,0 0,12.117 0,12.116 0,12.117 0,12.117 12.117,0 12.116,0 12.116,0 L 24.232,0 12.116,0 0,0 z"
         style="fill:#ffffff;fill-opacity:1;fill-rule:nonzero;stroke:none"
         id="path847" />
    </g>
    <g
       id="g849"
       transform="matrix(1.25,0,0,-1.25,126.00137,548.43368)">
      <path
         inkscape:connector-curvature="0"
         d="m 0,0 0,12.117 -12.116,0 0,-12.117 0,-12.116 0,-12.116 12.116,0 0,12.116 L 0,0 z"
         style="fill:#ffffff;fill-opacity:1;fill-rule:nonzero;stroke:none"
         id="path851" />
    </g>
    <g
       id="g853"
       transform="matrix(1.25,0,0,-1.25,141.14787,578.72431)">
      <path
         inkscape:connector-curvature="0"
         d="m 0,0 -12.117,0 0,-12.116 0,-12.117 12.117,0 0,12.117 L 0,0 z"
         style="fill:#ffffff;fill-opacity:1;fill-rule:nonzero;stroke:none"
         id="path855" />
    </g>
    <g
       id="g857"
       transform="matrix(1.25,0,0,-1.25,171.43837,578.72431)">
      <path
         inkscape:connector-curvature="0"
         d="m 0,0 0,-12.116 0,-12.117 -12.116,0 -12.116,0 0,-12.117 12.116,0 12.116,0 0,-12.116 12.116,0 0,12.116 0,12.117 0,12.117 L 12.116,0 0,0 z"
         style="fill:#ffffff;fill-opacity:1;fill-rule:nonzero;stroke:none"
         id="path859" />
    </g>
    <g
       id="g861"
       transform="matrix(1.25,0,0,-1.25,141.14787,639.30655)">
      <path
         inkscape:connector-curvature="0"
         d="m 0,0 0,-12.117 12.116,0 12.116,0 L 24.232,0 12.116,0 0,0 z"
         style="fill:#ffffff;fill-opacity:1;fill-rule:nonzero;stroke:none"
         id="path863" />
    </g>
    <g
       id="g3576"
       transform="translate(0,-1)">
      <path
         id="path865"
         style="fill:#ffffff;fill-opacity:1;fill-rule:nonzero;stroke:none"
         d="m 113.83487,491.21043 5.68251,0 0,-5.68375 -5.68251,0 0,5.68375 z m 0,2.9975 0,8.6875 -2.97874,0 0,-20.3725 8.75249,0 0,2.89 2.8925,0 0,5.90875 -2.8925,0 0,2.88625 -5.77375,0 z"
         inkscape:connector-curvature="0" />
      <g
         transform="matrix(1.25,0,0,-1.25,128.29262,508.71568)"
         id="g867">
        <path
           id="path869"
           style="fill:#ffffff;fill-opacity:1;fill-rule:nonzero;stroke:none"
           d="m 0,0 0,2.403 4.617,0 0,2.236 -4.617,0 0,2.31 -2.309,0 0,9.348 2.393,0 0,-9.258 4.533,0 0,9.258 2.388,0 0,-13.988 -2.314,0 L 4.691,0 0,0 z"
           inkscape:connector-curvature="0" />
      </g>
      <path
         id="path871"
         style="fill:#ffffff;fill-opacity:1;fill-rule:nonzero;stroke:none"
         d="m 142.94487,499.89043 5.67,0 0,-14.3625 -5.67,0 0,14.3625 z m -2.98375,-14.4775 2.8825,0 0,-2.89 5.86,0 0,2.89 2.89625,0 0,14.595 -2.89625,0 0,2.8875 -5.86,0 0,-2.8875 -2.8825,0 0,-14.595 z"
         inkscape:connector-curvature="0" />
      <g
         transform="matrix(1.25,0,0,-1.25,166.15026,502.89543)"
         id="g873">
        <path
           id="path875"
           style="fill:#ffffff;fill-opacity:1;fill-rule:nonzero;stroke:none"
           d="m 0,0 -2.391,0 0,9.259 -4.53,0 0,-9.259 -2.391,0 0,16.298 2.391,0 0,-4.636 4.607,0 0,-2.314 L 0,9.348 0,0 z"
           inkscape:connector-curvature="0" />
      </g>
      <path
         id="path877"
         style="fill:#ffffff;fill-opacity:1;fill-rule:nonzero;stroke:none"
         d="m 171.97737,502.89543 -2.91249,0 0,-14.5775 2.91249,0 0,14.5775 z m 0,-17.36875 -2.91249,0 0,-3.00375 2.91249,0 0,3.00375 z"
         inkscape:connector-curvature="0" />
      <path
         id="path879"
         style="fill:#ffffff;fill-opacity:1;fill-rule:nonzero;stroke:none"
         d="m 177.87362,499.89043 5.66625,0 0,-8.54125 -5.66625,0 0,8.54125 z m -0.10875,-8.6575 0,-2.88875 5.865,0 0,2.88875 2.89501,0 0,8.775 -2.89501,0 0,2.8875 -5.865,0 0,-2.8875 -2.885,0 0,-8.775 2.885,0 z"
         inkscape:connector-curvature="0" />
    </g>
    <g
       id="g881"
       transform="matrix(1.25,0,0,-1.25,149.06899,569.63005)">
      <path
         inkscape:connector-curvature="0"
         d="m 0,0 0,-3.771 -14.602,0 0,7.418 3.608,0 0,3.618 3.64,0 0,3.624 3.607,0 0,7.115 -7.113,0 0,-3.608 -3.742,0 0,3.763 3.608,0 0,3.615 7.357,0 0,-3.615 3.637,0 0,-7.418 -3.637,0 0,-3.618 -3.605,0 0,-3.626 -3.618,0 L -10.86,0 0,0 z"
         style="fill:#ffffff;fill-opacity:1;fill-rule:nonzero;stroke:none"
         id="path883" />
    </g>
    <path
       inkscape:connector-curvature="0"
       d="m 158.30737,569.63043 8.87875,0 0,-22.505 -8.87875,0 0,22.505 z m -4.68625,-22.7 4.51875,0 0,-4.51875 9.1875,0 0,4.51875 4.55125,0 0,22.88 -4.55125,0 0,4.5325 -9.1875,0 0,-4.5325 -4.51875,0 0,-22.88 z"
       style="fill:#ffffff;fill-opacity:1;fill-rule:nonzero;stroke:none"
       id="path885" />
    <g
       id="g887"
       transform="matrix(1.25,0,0,-1.25,190.12125,574.34318)">
      <path
         inkscape:connector-curvature="0"
         d="m 0,0 -3.742,0 0,18.167 -3.468,0 0,-3.655 -3.739,0 0,3.759 3.584,0 0,3.659 3.623,0 0,3.615 3.742,0 L 0,0 z"
         style="fill:#ffffff;fill-opacity:1;fill-rule:nonzero;stroke:none"
         id="path889" />
    </g>
    <g
       id="g891"
       transform="matrix(1.25,0,0,-1.25,212.93124,569.63005)">
      <path
         inkscape:connector-curvature="0"
         d="m 0,0 0,-3.771 -14.606,0 0,7.418 3.615,0 0,3.618 3.634,0 0,3.624 3.615,0 0,7.115 -7.12,0 0,-3.608 -3.744,0 0,3.763 3.615,0 0,3.615 7.359,0 0,-3.615 3.632,0 0,-7.418 -3.632,0 0,-3.618 -3.615,0 0,-3.626 -3.615,0 0,-3.497 L 0,0 z"
         style="fill:#ffffff;fill-opacity:1;fill-rule:nonzero;stroke:none"
         id="path893" />
    </g>
    <g
       id="g3559"
       transform="translate(0,-2)">
      <g
         transform="matrix(1.25,0,0,-1.25,34.81237,502.71718)"
         id="g895">
        <path
           id="path897"
           style="fill:#ffffff;fill-opacity:1;fill-rule:nonzero;stroke:none"
           d="m 0,0 0,1.055 3.043,0 0,1.995 -3.043,0 0,4.107 4.092,0 0,-1.056 -3.045,0 0,-1.997 2.03,0 0,-1.014 1.015,0 0,-2.075 -1.015,0 L 3.077,0 0,0 z"
           inkscape:connector-curvature="0" />
      </g>
      <g
         transform="matrix(1.25,0,0,-1.25,42.46137,497.63905)"
         id="g899">
        <path
           id="path901"
           style="fill:#ffffff;fill-opacity:1;fill-rule:nonzero;stroke:none"
           d="m 0,0 -1.007,0 0,1.055 1.007,0 0,2.04 1.047,0 0,-2.04 1.004,0 0,-1.055 -1.004,0 0,-4.063 L 0,-4.063 0,0 z"
           inkscape:connector-curvature="0" />
      </g>
      <g
         transform="matrix(1.25,0,0,-1.25,51.42499,502.71718)"
         id="g903">
        <path
           id="path905"
           style="fill:#ffffff;fill-opacity:1;fill-rule:nonzero;stroke:none"
           d="m 0,0 -1.047,0 0,4.063 -1.996,0 0,-4.063 -1.046,0 0,7.157 1.046,0 0,-2.04 2.027,0 0,-1.013 L 0,4.104 0,0 z"
           inkscape:connector-curvature="0" />
      </g>
      <path
         id="path907"
         style="fill:#ffffff;fill-opacity:1;fill-rule:nonzero;stroke:none"
         d="m 60.33862,495.09168 -2.495,0 0,2.495 2.495,0 0,-2.495 z m 0,3.81375 -2.495,0 0,3.81125 -1.30875,0 0,-7.6775 1.27,0 0,-1.26875 2.57251,0 0,1.26875 1.26874,0 0,7.6775 -1.3075,0 0,-3.81125 z"
         inkscape:connector-curvature="0" />
      <g
         transform="matrix(1.25,0,0,-1.25,68.03624,502.71718)"
         id="g909">
        <path
           id="path911"
           style="fill:#ffffff;fill-opacity:1;fill-rule:nonzero;stroke:none"
           d="m 0,0 -1.047,0 0,4.057 -1.996,0 0,-4.057 -1.046,0 0,5.111 3.073,0 0,-1.014 L 0,4.097 0,0 z"
           inkscape:connector-curvature="0" />
      </g>
      <g
         transform="matrix(1.25,0,0,-1.25,74.42549,502.71718)"
         id="g913">
        <path
           id="path915"
           style="fill:#ffffff;fill-opacity:1;fill-rule:nonzero;stroke:none"
           d="m 0,0 -1.047,0 0,4.057 -1.995,0 0,-4.057 -1.047,0 0,5.111 3.074,0 0,-1.014 L 0,4.097 0,0 z"
           inkscape:connector-curvature="0" />
      </g>
      <g
         transform="matrix(1.25,0,0,-1.25,80.81212,502.71718)"
         id="g917">
        <path
           id="path919"
           style="fill:#ffffff;fill-opacity:1;fill-rule:nonzero;stroke:none"
           d="m 0,0 -3.082,0 0,1.007 -1.005,0 0,4.104 1.078,0 0,-4.022 1.931,0 0,4.022 L 0,5.111 0,0 z"
           inkscape:connector-curvature="0" />
      </g>
      <path
         id="path921"
         style="fill:#ffffff;fill-opacity:1;fill-rule:nonzero;stroke:none"
         d="m 83.39862,501.39918 2.4975,0 0,-3.7525 -2.4975,0 0,3.7525 z m -0.0362,1.3175 0,-1.2675 -1.26875,0 0,-3.8525 1.26875,0 0,-1.26875 2.5725,0 0,1.26875 1.26625,0 0,5.12 -3.83875,0 z"
         inkscape:connector-curvature="0" />
      <path
         id="path923"
         style="fill:#ffffff;fill-opacity:1;fill-rule:nonzero;stroke:none"
         d="m 89.75862,502.71668 -1.27625,0 0,-8.94625 1.27625,0 0,8.94625 z"
         inkscape:connector-curvature="0" />
    </g>
  </g>
</svg>
